<?xml version="1.0" encoding="UTF-8" ?>
<!DOCTYPE svg PUBLIC "-//W3C//DTD SVG 1.1//EN" "http://www.w3.org/Graphics/SVG/1.1/DTD/svg11.dtd">
<svg width="320pt" height="320pt" viewBox="0 0 320 320" version="1.1" xmlns="http://www.w3.org/2000/svg">
<g id="#fec64dff">
<path fill="#fec64d" opacity="1.00" d=" M 0.00 0.00 L 320.00 0.00 L 320.00 320.00 L 0.00 320.00 L 0.00 0.00 M 142.57 24.00 C 147.57 28.30 146.18 35.22 146.47 41.04 C 143.93 40.68 143.27 42.86 142.57 44.76 C 143.53 44.77 145.46 44.80 146.43 44.82 C 146.73 50.88 146.76 56.96 146.82 63.03 C 146.83 68.25 147.37 73.52 146.27 78.68 C 151.55 77.89 156.78 76.84 162.07 76.12 C 160.98 71.17 161.36 66.07 161.20 61.03 C 161.22 55.65 160.76 50.27 160.95 44.89 C 161.58 44.75 162.84 44.46 163.47 44.32 C 163.81 43.17 164.15 42.03 164.50 40.88 C 163.58 40.90 161.76 40.92 160.85 40.94 C 160.67 37.07 161.18 32.98 159.61 29.33 C 158.34 27.03 155.88 25.78 153.92 24.14 C 154.59 23.22 155.26 22.30 155.93 21.39 C 158.05 22.68 160.17 24.00 162.32 25.26 C 163.09 22.73 163.82 20.19 164.45 17.62 C 162.08 16.76 159.66 15.43 157.09 15.61 C 152.14 18.20 147.46 21.30 142.57 24.00 M 173.49 20.38 C 174.82 25.52 176.09 30.67 177.37 35.82 C 178.92 36.00 180.47 36.17 182.03 36.32 C 184.29 31.55 186.87 26.93 189.16 22.16 C 186.43 23.11 183.73 24.14 181.04 25.19 C 178.52 23.59 176.02 21.97 173.49 20.38 M 202.22 29.61 C 200.78 34.68 199.26 39.72 197.81 44.79 C 197.21 44.72 196.00 44.58 195.40 44.51 C 194.85 45.24 193.74 46.71 193.18 47.45 C 194.38 47.85 195.58 48.24 196.78 48.64 C 195.29 54.10 193.40 59.46 192.16 64.98 C 191.20 68.72 195.15 71.01 198.21 71.72 C 202.60 73.09 207.04 71.38 211.04 69.64 C 209.77 68.57 208.49 67.49 207.24 66.40 C 208.61 62.03 209.83 57.63 211.05 53.22 C 211.68 53.08 212.93 52.82 213.56 52.69 C 214.14 51.79 214.71 50.90 215.29 50.01 C 214.54 49.79 213.04 49.36 212.29 49.15 C 213.67 43.97 215.21 38.83 216.69 33.67 C 213.86 34.44 211.04 35.17 208.22 35.94 C 206.23 33.81 204.23 31.71 202.22 29.61 M 167.35 43.55 C 166.64 45.33 170.08 45.11 171.00 46.05 C 170.44 51.57 170.54 57.28 168.75 62.59 C 171.45 64.18 174.15 65.77 176.75 67.52 C 180.75 66.42 184.68 65.11 188.67 64.00 C 187.39 62.72 185.49 61.80 184.84 60.05 C 185.13 54.76 185.96 49.52 186.40 44.24 C 184.23 42.80 182.07 41.36 179.89 39.93 C 175.75 41.28 171.76 43.31 167.35 43.55 M 79.94 65.32 C 81.07 65.67 82.18 66.09 83.26 66.57 C 85.13 70.29 86.49 74.25 88.26 78.02 C 87.59 79.12 86.92 80.21 86.26 81.31 C 90.56 80.85 94.83 80.19 99.12 79.68 C 107.79 79.32 113.09 71.46 118.89 66.08 C 119.28 63.98 116.65 63.08 115.13 64.04 C 112.46 65.41 109.79 66.95 106.67 66.92 C 108.11 63.27 113.17 61.49 112.56 57.15 C 112.77 56.91 113.19 56.41 113.39 56.17 C 108.68 53.49 103.21 53.05 98.00 52.05 C 91.90 56.37 86.00 60.96 79.94 65.32 M 222.75 55.38 C 223.34 56.55 223.94 57.72 224.54 58.89 C 221.37 63.28 219.09 68.36 215.11 72.11 C 216.79 74.81 218.47 77.51 220.17 80.20 C 224.19 81.01 228.24 81.73 232.28 82.46 C 231.62 80.89 230.94 79.33 230.26 77.77 C 232.35 74.24 234.58 70.80 237.00 67.48 C 239.43 68.52 241.36 70.34 242.17 72.90 C 240.09 77.17 237.64 81.34 234.29 84.75 C 236.07 87.27 237.47 90.07 239.40 92.49 C 243.29 93.80 247.45 94.08 251.47 94.89 C 250.80 93.24 250.13 91.59 249.45 89.94 C 251.75 86.40 254.15 82.93 256.40 79.36 C 258.48 79.88 258.74 75.26 256.63 75.46 C 255.47 72.65 254.31 69.13 251.18 67.97 C 247.55 66.68 243.77 65.91 240.03 65.03 C 238.38 62.35 236.83 59.62 235.23 56.92 C 231.06 56.49 226.91 55.91 222.75 55.38 M 54.60 65.18 C 51.73 65.53 48.89 66.00 46.05 66.52 C 49.47 70.60 52.82 74.74 56.13 78.91 C 55.68 79.31 54.78 80.12 54.33 80.52 C 54.69 81.43 55.40 83.24 55.76 84.15 C 56.62 83.37 57.47 82.59 58.33 81.82 C 62.32 86.17 65.64 91.10 69.73 95.36 C 72.43 97.83 76.36 95.65 78.62 93.58 C 82.07 90.76 83.05 86.26 84.07 82.16 C 82.49 82.59 80.91 83.05 79.34 83.52 C 76.37 79.98 73.46 76.40 70.65 72.75 C 71.85 70.94 70.95 68.98 70.47 67.12 C 69.84 67.70 68.57 68.87 67.94 69.45 C 64.48 65.30 61.12 61.07 57.73 56.86 C 56.74 59.66 55.71 62.44 54.60 65.18 M 231.90 77.28 C 232.71 79.01 232.55 81.81 234.87 82.21 C 237.52 79.73 239.23 76.36 240.31 72.93 C 240.70 71.27 239.39 69.87 237.88 69.48 C 235.24 71.52 233.77 74.61 231.90 77.28 M 133.80 81.94 C 131.84 82.28 129.64 83.41 127.80 82.15 C 126.08 81.27 124.16 80.23 122.22 81.14 C 116.84 82.50 114.12 87.64 110.46 91.25 C 99.03 98.57 88.23 107.43 80.82 118.95 C 76.69 124.83 73.98 131.51 70.61 137.82 C 66.09 137.48 61.53 137.10 57.00 137.51 C 51.56 139.34 52.00 145.94 50.66 150.47 C 56.66 154.53 63.81 156.33 70.84 157.67 C 77.25 158.55 84.06 159.37 90.32 157.35 C 91.84 155.22 92.54 152.04 91.39 149.59 C 88.55 144.52 82.31 143.33 78.00 139.92 C 82.05 126.64 90.17 114.77 100.50 105.57 C 104.84 101.64 109.51 97.82 115.17 95.99 C 113.16 101.39 106.92 103.04 103.73 107.47 C 102.04 110.91 100.44 114.53 100.15 118.40 C 106.14 124.11 100.60 133.32 105.30 139.66 C 106.74 142.80 110.85 142.62 112.87 145.12 C 115.72 148.73 115.87 153.69 118.73 157.30 C 123.54 163.94 131.53 167.02 137.26 172.70 C 139.70 175.23 142.75 178.24 142.18 182.09 C 139.97 189.03 134.15 194.40 132.87 201.66 C 136.77 197.73 138.08 191.87 142.43 188.32 C 143.56 187.36 145.31 187.97 146.40 188.74 C 149.02 190.58 151.98 192.37 153.36 195.40 C 154.99 198.37 156.10 202.10 159.33 203.74 C 161.48 204.09 163.77 203.96 165.81 203.17 C 169.36 197.23 170.55 189.30 177.19 185.71 C 181.63 189.44 183.67 195.21 185.65 200.50 C 185.97 199.67 186.57 198.79 186.15 197.86 C 184.52 191.02 178.78 185.08 180.30 177.65 C 184.04 169.71 191.00 164.18 197.02 158.06 C 200.61 154.74 200.76 148.98 204.99 146.21 C 208.18 143.99 210.83 140.88 211.82 137.07 C 213.53 131.48 211.88 125.69 211.43 120.05 C 211.76 112.89 207.94 106.51 206.59 99.62 C 212.40 102.82 217.06 107.60 221.95 112.00 C 227.73 117.10 232.12 123.58 235.74 130.34 C 237.46 133.81 238.84 137.42 240.11 141.08 C 236.48 143.13 232.22 144.18 229.11 147.05 C 226.65 149.89 227.80 153.91 229.27 156.93 C 229.07 158.86 229.40 160.71 230.86 162.09 C 234.11 162.45 237.45 162.87 240.39 164.41 C 236.76 164.88 233.22 162.64 229.70 163.55 C 230.69 166.54 230.34 169.69 230.78 172.73 C 232.14 173.71 233.64 174.50 235.09 175.36 C 233.55 175.33 232.01 175.30 230.48 175.28 C 229.80 179.21 233.96 180.34 236.76 181.50 C 246.38 184.78 257.00 185.29 266.86 182.78 C 268.50 182.27 270.39 181.79 271.40 180.26 C 271.92 178.84 271.28 177.35 271.08 175.93 C 264.35 179.24 256.75 180.25 249.32 179.46 C 249.32 179.25 249.31 178.81 249.31 178.60 C 257.03 178.46 264.89 177.40 271.75 173.63 C 271.71 171.28 271.90 168.76 270.24 166.87 C 265.96 168.81 261.95 171.61 257.16 172.10 C 251.03 172.77 244.44 173.08 238.74 170.34 C 244.45 170.38 250.22 171.50 255.89 170.28 C 261.52 169.47 266.74 167.04 271.43 163.89 C 271.04 162.21 270.61 160.54 270.08 158.91 C 262.74 162.93 254.35 166.31 245.84 165.00 C 250.51 164.07 255.27 163.50 259.79 161.93 C 263.83 160.65 268.37 159.04 270.50 155.08 C 270.33 153.22 269.02 151.80 268.17 150.24 C 268.39 147.27 268.13 143.45 265.20 141.85 C 259.50 139.12 252.86 140.78 246.95 139.12 C 244.49 135.27 242.85 130.96 240.23 127.20 L 240.34 127.12 C 231.37 113.01 220.25 99.38 205.02 91.77 C 201.03 89.64 198.69 85.47 194.90 83.07 C 192.06 81.45 188.56 81.91 185.66 83.12 C 168.84 78.41 150.77 77.40 133.80 81.94 M 264.86 85.23 C 264.88 86.10 264.91 87.84 264.93 88.70 C 261.55 91.26 258.18 93.84 254.79 96.40 C 253.48 96.03 252.17 95.66 250.87 95.29 C 253.34 100.61 255.01 106.27 257.61 111.54 C 261.67 116.71 267.72 119.75 273.35 122.89 C 273.66 122.34 274.28 121.25 274.59 120.70 C 269.94 117.58 266.25 112.56 266.77 106.70 C 272.17 109.16 276.53 114.03 282.48 115.05 C 283.07 109.93 282.76 104.77 282.32 99.66 C 276.59 94.74 270.70 90.02 264.86 85.23 M 43.93 95.04 C 42.42 97.48 39.78 98.81 37.41 100.26 C 35.85 105.79 31.54 110.21 30.87 116.03 C 30.41 118.89 31.39 122.32 34.13 123.70 C 37.05 125.36 40.36 123.93 43.28 123.07 C 43.21 123.65 43.06 124.83 42.99 125.42 C 43.46 125.44 44.42 125.49 44.89 125.52 L 42.99 125.73 C 43.60 128.23 44.56 130.65 46.37 132.53 C 47.35 129.09 47.78 125.12 50.58 122.57 C 52.60 120.58 55.79 120.04 57.33 117.53 C 60.06 113.25 62.48 108.61 63.47 103.59 C 64.21 100.18 63.10 96.01 59.74 94.43 C 56.41 92.69 52.70 94.29 49.67 95.89 C 49.16 93.36 48.44 90.86 47.06 88.66 C 45.99 90.78 45.16 93.01 43.93 95.04 M 285.25 126.72 C 282.90 127.49 282.29 130.49 281.12 132.44 C 278.53 130.20 275.60 128.05 271.98 128.31 C 273.60 131.04 275.70 133.70 276.13 136.95 C 276.51 139.68 275.47 142.31 274.69 144.87 C 276.19 150.78 277.74 156.96 281.74 161.73 C 283.85 164.42 287.88 165.70 290.97 163.93 C 294.01 162.44 295.19 159.07 296.06 156.03 C 298.15 157.27 300.22 159.25 302.86 158.82 C 302.30 156.44 300.90 154.34 300.45 151.93 C 299.98 149.31 301.05 146.77 301.26 144.18 C 298.99 139.45 298.22 134.08 295.41 129.60 C 294.26 128.03 292.78 126.08 290.65 126.06 C 290.24 123.85 285.18 124.52 285.25 126.72 M 18.08 142.80 C 18.24 150.28 18.46 157.75 18.68 165.23 C 19.50 164.48 20.30 163.72 21.11 162.96 C 25.36 163.79 29.61 164.63 33.84 165.57 C 34.34 166.72 34.83 167.88 35.32 169.04 C 38.10 163.93 40.89 158.79 43.31 153.50 C 44.53 147.01 42.91 140.39 41.49 134.06 C 40.71 134.30 39.93 134.55 39.15 134.81 C 39.70 140.21 38.50 146.53 33.47 149.52 C 31.92 143.92 32.89 137.33 29.46 132.42 C 25.28 135.43 21.55 139.00 18.08 142.80 M 48.42 152.32 C 46.51 160.70 47.42 169.46 46.80 178.00 C 47.04 179.89 46.80 183.20 48.76 183.97 C 48.77 185.35 48.79 186.73 48.82 188.12 C 53.20 188.67 57.50 190.03 61.96 189.82 C 68.52 189.56 74.85 187.66 81.18 186.07 C 83.91 185.37 86.73 184.62 89.04 182.94 C 88.99 182.51 88.88 181.64 88.83 181.21 C 83.05 181.14 77.62 183.79 71.89 184.42 C 64.57 186.08 57.06 185.16 49.74 184.08 L 51.34 183.39 L 49.55 182.65 C 49.98 182.47 50.86 182.11 51.30 181.94 C 63.47 185.01 75.95 181.72 87.71 178.46 C 87.89 177.79 88.24 176.46 88.42 175.79 C 86.93 175.98 85.43 176.16 83.96 176.45 C 72.24 179.00 60.07 178.69 48.30 176.73 C 48.30 176.18 48.30 175.07 48.29 174.51 C 59.52 178.03 71.55 177.09 82.93 174.82 C 85.16 174.19 88.07 174.12 88.89 171.46 C 78.70 172.15 68.35 173.27 58.22 171.50 C 55.12 171.09 52.29 169.08 49.14 169.26 C 49.61 168.91 50.54 168.21 51.00 167.86 L 49.84 167.29 C 61.71 170.97 74.68 172.23 86.84 169.14 C 88.52 169.07 88.84 167.45 89.25 166.17 C 83.83 166.26 78.43 167.48 73.01 166.67 C 65.99 165.50 58.43 165.80 52.17 161.91 C 51.22 161.25 50.04 160.54 50.52 159.20 C 53.98 160.35 57.04 162.44 60.55 163.47 C 69.13 166.24 78.25 164.81 87.04 164.23 C 89.33 164.47 89.71 162.21 89.90 160.51 C 76.53 160.26 62.39 159.67 50.61 152.56 L 50.75 152.29 C 50.44 152.14 49.84 151.84 49.53 151.69 L 48.42 152.32 M 281.16 169.55 C 281.17 172.90 282.09 176.50 280.59 179.67 C 279.28 182.57 276.09 184.32 275.46 187.58 C 274.27 192.29 273.81 197.23 274.29 202.07 C 274.58 205.37 276.53 208.99 280.04 209.64 C 283.97 210.69 287.54 207.95 289.89 205.07 C 291.11 207.28 292.54 209.36 294.20 211.26 C 295.30 208.79 295.01 206.03 295.68 203.46 C 296.45 200.92 298.42 199.03 300.06 197.03 C 299.70 190.81 302.85 184.60 300.64 178.49 C 299.88 175.60 296.92 173.66 294.00 173.69 C 291.39 173.95 289.34 175.75 287.33 177.25 C 286.03 174.15 284.40 170.98 281.16 169.55 M 17.43 185.89 C 16.62 189.17 18.60 192.08 20.26 194.69 C 23.76 200.09 26.26 206.08 28.06 212.24 C 31.78 211.34 35.42 210.17 39.13 209.28 C 41.28 208.50 43.26 209.90 45.32 210.31 L 46.91 210.99 C 47.31 205.59 46.81 200.08 48.22 194.80 C 51.47 197.21 49.31 202.97 53.47 204.22 C 56.09 206.45 59.62 204.66 62.61 205.49 C 64.93 206.79 66.13 209.26 67.25 211.54 C 60.84 212.21 54.94 214.83 48.88 216.81 C 43.03 218.67 38.12 222.54 33.49 226.45 C 27.54 231.02 26.36 239.47 27.59 246.42 C 28.85 252.38 34.75 254.91 39.55 257.53 C 38.60 258.92 37.66 260.31 36.74 261.72 C 40.14 261.05 44.38 259.42 44.38 255.27 C 40.87 255.21 37.44 254.20 34.61 252.09 C 30.77 249.83 29.33 245.17 28.86 241.01 C 29.28 233.86 34.44 228.18 40.04 224.28 C 48.54 218.23 58.85 215.64 68.81 213.09 C 76.99 213.33 84.81 216.63 93.02 216.80 C 97.17 216.68 100.87 219.57 105.05 218.88 C 110.13 217.69 114.68 214.98 119.12 212.31 C 120.28 211.28 121.78 212.01 123.08 212.28 C 127.04 213.37 131.05 214.29 134.98 215.52 C 135.25 216.91 135.55 218.29 135.81 219.69 C 134.21 225.38 134.93 231.44 135.21 237.27 C 135.58 237.69 136.33 238.53 136.70 238.95 C 140.69 239.14 144.15 236.55 147.84 235.36 C 147.71 231.52 149.25 226.18 144.89 224.10 C 144.38 223.38 143.74 222.73 142.97 222.31 C 142.08 220.51 140.74 219.02 139.26 217.69 C 141.62 217.15 143.97 216.50 146.13 215.35 L 145.42 213.67 C 143.18 214.06 141.04 214.84 138.93 215.64 C 132.35 212.29 124.89 208.87 117.36 210.57 C 113.58 212.34 110.40 215.28 106.31 216.42 C 103.70 217.56 100.98 216.31 98.37 215.83 C 90.67 214.35 82.89 213.27 75.21 211.70 C 76.26 208.92 77.05 206.01 78.52 203.41 C 81.95 201.55 85.91 200.97 89.43 199.29 C 88.06 198.75 86.60 198.06 85.16 198.84 C 81.97 199.99 78.57 200.76 75.66 202.56 C 75.62 204.28 76.09 206.08 75.47 207.75 C 75.08 206.14 74.97 204.48 74.84 202.84 C 75.14 200.84 77.39 200.73 78.88 200.10 C 83.00 198.58 87.62 197.98 91.16 195.23 C 93.26 193.88 90.48 189.89 88.41 191.43 C 77.77 195.63 66.21 197.30 54.80 196.93 C 54.30 196.52 53.30 195.70 52.80 195.29 C 57.21 196.05 61.63 194.85 66.05 194.96 C 73.27 195.11 80.18 192.54 86.88 190.14 C 88.82 189.64 91.12 187.52 88.98 185.73 C 83.32 187.23 77.86 189.46 72.12 190.69 C 65.39 192.00 58.48 191.56 51.72 190.76 L 53.48 189.83 C 51.93 189.25 50.38 188.69 48.82 188.12 L 48.17 187.88 C 48.22 189.06 48.27 190.25 48.31 191.44 C 45.70 187.61 44.99 182.70 41.64 179.36 C 39.87 177.51 37.71 175.39 34.88 176.19 C 27.57 172.39 18.58 178.15 17.43 185.89 M 232.00 185.04 C 236.32 187.57 241.21 188.82 246.03 189.99 C 254.59 191.65 264.37 191.69 271.85 186.61 C 271.65 185.61 271.41 184.62 271.15 183.64 C 263.37 185.81 255.09 187.25 247.08 185.50 C 241.89 184.45 237.08 182.10 231.90 181.03 C 230.38 181.99 230.55 184.11 232.00 185.04 M 230.56 186.43 C 230.84 188.20 231.19 189.96 231.51 191.73 C 230.29 193.37 229.54 195.91 231.46 197.35 C 236.00 199.66 241.04 200.68 245.78 202.46 C 246.82 203.78 246.39 205.55 246.52 207.10 C 246.25 209.08 247.89 211.43 250.08 210.94 C 253.69 210.81 253.65 206.00 256.03 204.18 C 260.79 202.97 266.14 204.14 270.49 201.46 C 271.45 199.87 271.48 197.96 271.75 196.17 C 267.44 196.40 263.34 198.19 258.98 197.89 C 255.11 197.59 250.86 198.35 247.31 196.46 C 253.19 197.07 259.20 197.65 264.97 195.94 C 267.80 195.30 272.48 193.99 271.02 190.15 C 263.25 192.30 254.67 193.50 246.84 191.04 C 241.21 190.28 236.23 187.09 230.56 186.43 M 196.71 208.26 C 197.68 209.79 199.00 211.05 200.70 211.74 C 203.85 213.17 206.72 215.24 210.00 216.36 C 215.72 216.32 221.17 214.04 226.89 213.95 C 229.49 213.86 232.08 213.69 234.65 213.27 C 233.35 212.44 232.04 211.39 230.40 211.47 C 223.87 211.30 217.56 213.66 211.04 213.73 C 207.18 213.68 204.07 211.00 201.50 208.40 C 199.90 208.33 198.30 208.28 196.71 208.26 M 175.92 217.62 C 177.95 218.55 179.97 219.49 182.00 220.41 C 182.03 226.64 181.81 232.87 181.64 239.10 C 181.66 240.69 180.62 241.97 179.95 243.33 C 185.27 245.60 190.53 248.01 195.85 250.29 C 202.59 248.57 209.38 247.01 216.15 245.38 C 213.63 243.66 211.09 241.95 208.54 240.28 C 208.76 234.49 208.76 228.69 208.96 222.90 C 213.52 222.55 219.45 224.19 220.64 229.23 C 221.11 235.14 220.45 241.08 220.46 247.01 C 220.58 248.83 219.64 250.43 218.88 252.02 C 224.29 254.49 229.36 257.73 234.92 259.83 C 241.65 258.81 248.31 257.29 255.03 256.15 C 252.44 254.19 249.81 252.30 247.24 250.32 C 247.60 242.54 247.42 234.74 248.12 226.99 C 252.62 227.54 258.08 229.92 258.62 235.02 C 258.73 242.34 258.13 249.65 258.13 256.97 C 258.30 258.92 257.40 260.66 256.43 262.28 C 261.95 265.14 267.06 268.87 272.76 271.30 C 279.46 270.63 286.09 269.37 292.79 268.62 C 290.19 266.62 287.69 264.48 285.03 262.57 C 284.74 252.70 285.79 242.85 285.60 232.98 C 285.50 229.44 282.48 227.12 280.06 224.98 C 276.06 221.95 271.32 219.08 266.13 219.33 C 259.05 220.07 251.99 221.01 244.94 221.99 C 239.72 218.11 233.77 213.07 226.79 214.54 C 221.08 215.44 215.39 216.55 209.68 217.46 C 205.51 215.17 201.30 212.88 196.91 211.07 C 189.76 212.62 182.96 215.60 175.92 217.62 M 140.96 218.04 C 143.40 220.62 146.30 222.90 148.05 226.05 C 149.34 229.16 148.85 232.63 148.93 235.91 C 145.31 237.19 141.82 239.01 137.99 239.56 C 135.37 239.98 134.13 237.13 134.31 234.94 C 134.33 228.72 134.53 222.50 134.78 216.28 C 130.16 215.22 125.65 213.54 120.93 212.96 C 114.55 215.35 108.61 218.77 102.36 221.47 C 104.88 222.61 107.40 223.76 109.91 224.94 C 109.62 230.16 109.71 235.40 109.39 240.62 C 108.34 242.21 106.60 243.20 105.19 244.44 C 111.17 245.76 117.03 247.60 122.98 249.05 C 124.44 249.55 125.81 248.54 127.15 248.13 C 134.29 244.99 141.50 242.02 148.74 239.12 C 148.53 243.78 149.06 248.55 147.98 253.12 C 146.07 258.52 139.78 259.76 135.18 261.99 C 135.20 263.40 135.21 264.80 135.23 266.21 C 135.07 266.22 134.77 266.25 134.62 266.26 C 134.77 264.64 134.93 263.02 135.07 261.40 C 139.67 259.48 145.70 258.32 147.68 253.09 C 148.56 248.83 148.23 244.43 148.39 240.11 C 141.98 241.84 136.19 245.19 130.00 247.55 C 127.64 248.30 125.41 250.59 122.79 249.72 C 116.47 247.97 110.09 246.44 103.76 244.71 C 104.50 243.73 105.24 242.75 105.98 241.77 C 109.29 239.78 108.28 235.28 108.50 232.03 C 108.23 229.46 109.09 225.73 105.91 224.74 C 104.66 223.02 102.81 222.10 100.76 221.71 C 99.83 222.70 98.89 223.69 97.96 224.69 C 97.89 231.13 97.94 237.59 98.02 244.03 C 98.00 248.51 101.44 251.66 104.44 254.50 C 101.19 256.04 98.13 257.92 95.04 259.75 C 92.23 261.45 88.81 262.35 86.82 265.16 C 90.87 264.78 94.40 262.71 98.01 261.05 C 101.33 259.59 104.91 257.51 106.26 253.96 C 105.54 251.67 103.36 250.35 101.73 248.77 C 101.81 248.08 101.98 246.69 102.07 246.00 C 108.95 249.27 116.49 250.73 123.98 251.76 C 131.14 251.21 136.92 245.91 144.00 244.84 C 147.06 246.07 145.77 250.33 144.80 252.69 C 142.87 258.20 134.86 256.25 132.43 261.31 C 131.36 263.73 132.72 266.20 133.60 268.43 C 140.45 268.19 147.47 269.05 154.15 267.15 C 160.04 265.46 166.10 263.72 171.11 260.05 C 174.24 257.92 177.25 254.83 176.20 250.64 C 173.87 252.33 173.13 255.27 171.18 257.26 C 168.40 259.60 164.93 260.88 161.57 262.12 C 156.24 263.99 150.83 266.37 145.04 265.91 C 141.98 265.61 138.94 266.50 135.91 266.29 C 147.61 265.44 160.14 264.29 169.96 257.20 C 174.29 254.28 175.28 248.87 174.91 244.00 C 174.73 238.09 175.61 232.12 174.70 226.24 C 173.00 218.08 164.83 212.92 157.00 212.06 C 151.52 213.65 146.35 216.16 140.96 218.04 M 50.62 219.34 C 43.70 222.20 36.71 226.06 32.53 232.50 C 29.28 237.63 28.74 245.19 33.19 249.81 C 37.21 254.10 43.40 255.32 49.06 254.85 C 43.23 259.45 37.10 263.66 31.19 268.16 C 40.10 270.19 48.92 272.59 57.86 274.48 C 62.12 275.46 66.56 274.47 70.33 272.39 C 81.35 266.51 92.28 260.46 103.16 254.33 C 100.03 251.31 97.14 247.60 97.08 243.04 C 96.89 236.25 97.06 229.43 97.51 222.66 C 99.01 221.56 100.58 220.58 102.11 219.52 C 91.36 217.82 80.70 215.52 69.93 214.06 C 63.32 214.97 56.86 216.99 50.62 219.34 M 234.67 213.64 C 237.20 217.12 241.90 217.95 244.80 221.15 C 252.80 220.58 260.90 218.61 269.04 218.98 C 272.52 218.96 275.13 222.05 278.70 221.77 C 276.48 218.80 273.06 216.59 269.29 216.47 C 262.46 216.24 255.73 217.62 248.97 218.25 C 243.42 219.22 240.35 212.34 234.67 213.64 M 173.78 218.89 C 174.16 223.01 176.40 226.79 176.16 231.00 C 176.09 235.36 176.06 239.72 176.31 244.08 C 177.82 243.11 179.33 242.15 180.84 241.18 C 181.29 234.67 180.86 228.14 180.94 221.62 C 179.10 219.50 176.57 218.66 173.78 218.89 M 209.89 223.63 C 210.21 228.77 210.07 233.91 210.13 239.06 C 209.79 241.58 213.00 243.55 215.06 241.96 L 215.72 241.92 C 214.80 244.93 217.55 246.03 220.15 245.63 C 219.69 239.86 221.61 233.60 218.84 228.23 C 217.58 224.39 213.58 223.25 209.89 223.63 M 284.18 226.35 C 284.44 228.02 285.16 229.56 286.00 231.01 C 285.94 241.38 285.88 251.77 286.36 262.11 C 288.43 265.21 291.97 266.87 294.88 269.09 C 289.92 269.60 285.05 270.70 280.08 271.15 C 277.08 271.34 273.95 272.92 271.05 271.45 C 265.56 269.10 260.84 265.32 255.67 262.37 C 256.42 260.46 257.10 258.51 257.75 256.57 C 249.70 257.51 241.84 259.66 233.77 260.55 C 234.75 261.79 236.13 263.02 237.84 262.51 C 243.37 261.65 248.84 259.97 254.51 260.38 C 253.35 261.39 252.20 262.40 251.05 263.41 C 258.51 266.49 264.96 271.59 272.56 274.37 C 275.74 275.58 278.93 273.78 282.04 273.18 C 287.02 271.90 292.58 272.87 297.12 270.05 C 295.98 265.88 292.01 264.26 288.80 262.01 C 287.40 251.73 289.13 241.25 288.17 230.93 C 288.06 228.63 285.74 227.57 284.18 226.35 M 247.90 234.06 C 247.58 239.56 247.59 245.07 247.73 250.58 C 250.67 251.95 253.65 253.25 256.69 254.41 C 259.02 248.53 258.06 242.06 258.27 235.89 C 258.47 231.68 254.30 229.35 251.09 227.66 C 249.74 229.61 247.97 231.55 247.90 234.06 M 176.21 244.11 C 176.30 245.59 176.39 247.08 176.48 248.57 C 181.41 245.27 186.09 250.24 191.09 250.58 L 190.19 248.76 C 185.92 246.38 181.24 243.98 176.21 244.11 M 209.19 247.87 C 204.93 249.32 200.44 249.83 196.08 250.89 C 194.42 250.67 192.75 250.47 191.09 250.31 C 191.96 251.72 193.20 253.15 195.04 252.93 C 202.22 253.12 208.97 250.21 215.91 248.78 C 216.25 250.77 215.78 253.29 217.78 254.56 C 217.83 253.96 217.93 252.76 217.99 252.16 C 218.32 250.56 218.63 248.95 218.97 247.35 C 215.71 247.20 212.34 246.76 209.19 247.87 Z" />
<path fill="#fec64d" opacity="1.00" d=" M 96.50 59.82 C 98.87 60.44 101.18 61.21 103.46 62.10 C 102.07 63.60 100.65 65.08 99.22 66.54 C 98.23 64.33 97.32 62.09 96.50 59.82 Z" />
<path fill="#fec64d" opacity="1.00" d=" M 125.19 86.70 C 122.52 86.68 122.43 82.84 125.06 82.53 C 125.13 83.92 125.18 85.31 125.19 86.70 Z" />
<path fill="#fec64d" opacity="1.00" d=" M 141.95 86.13 C 155.46 83.69 169.63 84.85 182.59 89.34 C 182.78 91.19 182.95 93.04 183.22 94.89 C 184.92 97.79 188.24 99.01 190.41 101.45 C 191.84 103.50 190.75 105.96 190.21 108.11 C 188.62 112.59 189.26 118.15 185.24 121.46 C 181.19 121.27 177.18 120.31 173.17 119.72 C 171.35 119.62 170.34 118.03 169.41 116.69 C 166.69 112.55 162.56 109.67 158.98 106.34 C 154.00 110.85 149.03 115.43 143.78 119.62 C 140.00 120.01 136.18 120.28 132.63 121.76 C 132.12 121.87 131.11 122.08 130.61 122.19 C 128.74 118.93 126.70 115.80 124.60 112.70 C 125.65 108.26 126.10 103.73 126.45 99.19 C 129.85 97.26 131.19 93.62 132.52 90.19 C 133.87 86.34 138.70 86.87 141.95 86.13 Z" />
<path fill="#fec64d" opacity="1.00" d=" M 189.47 85.04 C 190.85 84.64 191.33 85.14 190.91 86.54 C 189.53 86.94 189.05 86.44 189.47 85.04 Z" />
<path fill="#fec64d" opacity="1.00" d=" M 116.97 87.38 C 118.55 86.84 119.14 87.39 118.71 89.04 C 117.13 89.57 116.54 89.02 116.97 87.38 Z" />
<path fill="#fec64d" opacity="1.00" d=" M 124.56 89.15 C 126.28 88.60 128.06 88.59 129.82 88.94 C 129.49 91.54 128.43 93.93 126.91 96.04 C 124.00 95.08 121.01 94.43 117.93 94.53 C 120.80 91.11 126.35 94.67 128.44 90.66 C 127.11 90.26 125.79 89.81 124.56 89.15 Z" />
<path fill="#fec64d" opacity="1.00" d=" M 184.86 91.88 C 185.13 91.31 185.67 90.18 185.94 89.62 C 187.50 90.23 189.06 90.85 190.56 91.61 C 188.66 91.76 186.76 91.82 184.86 91.88 Z" />
<path fill="#fec64d" opacity="1.00" d=" M 184.44 94.82 C 184.89 94.79 185.79 94.72 186.24 94.69 C 190.52 94.56 195.12 93.73 198.57 96.93 C 193.79 97.43 188.74 97.16 184.44 94.82 Z" />
<path fill="#fec64d" opacity="1.00" d=" M 115.99 98.91 C 117.56 97.53 119.70 96.91 121.77 97.23 C 123.43 102.10 118.02 104.83 115.37 107.94 C 118.01 106.94 120.44 105.50 122.95 104.23 C 122.96 107.71 122.46 111.25 120.22 114.06 C 122.28 115.06 124.77 115.89 125.70 118.22 C 127.51 122.22 126.85 126.76 127.32 131.02 C 121.58 130.70 117.33 126.48 114.88 121.62 C 114.70 125.71 117.46 129.09 117.82 133.05 C 116.76 136.56 113.73 139.78 110.01 140.38 C 108.04 140.68 106.67 138.86 105.76 137.39 C 102.95 133.02 105.14 127.71 104.48 122.92 C 104.32 120.36 102.62 118.31 101.69 116.02 C 101.46 113.85 103.68 112.95 104.99 111.70 C 105.11 110.19 105.17 108.53 106.40 107.45 C 109.42 104.42 112.64 101.57 115.99 98.91 M 117.20 113.18 C 115.92 113.89 115.93 114.58 117.24 115.24 C 118.51 114.52 118.50 113.84 117.20 113.18 Z" />
<path fill="#fec64d" opacity="1.00" d=" M 268.51 104.40 C 270.39 102.88 272.34 101.43 274.32 100.01 C 274.30 102.45 274.15 104.89 273.92 107.32 C 272.09 106.39 270.30 105.39 268.51 104.40 Z" />
<path fill="#fec64d" opacity="1.00" d=" M 38.63 107.97 C 40.93 106.48 43.37 105.23 45.75 103.89 C 45.70 106.43 46.10 110.20 43.02 111.17 C 40.86 111.90 39.36 109.68 38.63 107.97 Z" />
<path fill="#fec64d" opacity="1.00" d=" M 47.63 114.43 C 47.84 111.24 49.24 106.98 53.07 106.82 C 54.53 107.55 55.20 109.14 56.18 110.36 C 53.29 111.62 50.43 112.98 47.63 114.43 Z" />
<path fill="#fec64d" opacity="1.00" d=" M 155.12 113.18 C 155.17 111.44 157.99 110.12 159.43 111.04 C 159.34 112.68 156.92 113.11 155.60 113.42 L 155.12 113.18 Z" />
<path fill="#fec64d" opacity="1.00" d=" M 136.66 122.91 C 144.06 120.41 152.42 122.15 158.63 126.74 C 157.04 126.53 153.87 126.11 152.28 125.90 C 155.47 127.41 158.72 128.80 161.84 130.49 C 157.82 130.20 153.60 128.85 149.73 130.64 C 152.56 131.14 155.61 130.79 158.29 131.99 C 159.57 135.47 156.56 138.56 153.38 139.33 C 148.91 140.39 144.25 140.17 139.68 140.29 C 135.57 139.39 128.85 136.79 130.43 131.47 C 133.53 129.24 137.61 129.79 141.16 129.02 C 139.00 128.27 136.79 127.66 134.59 127.07 C 136.03 126.29 137.47 125.51 138.91 124.73 C 137.71 124.74 135.31 124.78 134.11 124.79 L 136.66 122.91 M 136.42 136.27 C 136.87 136.83 136.87 136.83 136.42 136.27 Z" />
<path fill="#fec64d" opacity="1.00" d=" M 158.96 127.27 C 163.65 124.00 169.33 122.19 175.02 121.85 C 178.53 121.58 181.93 122.98 184.51 125.29 C 183.53 125.34 181.55 125.44 180.57 125.49 C 180.44 126.34 180.31 127.20 180.19 128.05 C 181.83 128.77 185.28 128.33 184.85 130.95 C 184.69 133.95 182.87 136.49 181.83 139.22 C 186.49 136.75 187.62 129.19 193.89 129.83 C 192.22 135.45 185.48 136.45 182.80 141.34 C 181.63 140.84 180.46 140.34 179.29 139.85 C 173.77 141.04 168.24 139.38 163.53 136.52 C 162.20 135.13 162.47 132.92 162.02 131.17 C 164.80 130.47 167.64 130.08 170.44 129.50 C 168.44 129.03 166.41 128.76 164.39 128.40 C 166.28 127.25 168.28 126.29 170.12 125.07 C 166.25 124.92 162.75 126.83 158.96 127.27 Z" />
<path fill="#fec64d" opacity="1.00" d=" M 196.75 140.28 C 194.42 138.07 195.46 134.91 196.54 132.33 C 197.53 134.90 197.94 137.70 196.75 140.28 Z" />
<path fill="#fec64d" opacity="1.00" d=" M 127.10 135.04 C 130.43 136.41 132.67 139.34 133.43 142.84 C 129.37 142.39 127.82 138.51 127.10 135.04 Z" />
<path fill="#fec64d" opacity="1.00" d=" M 188.87 147.12 C 187.65 142.69 191.41 138.85 193.19 135.07 C 193.67 139.52 192.21 144.06 188.87 147.12 Z" />
<path fill="#fec64d" opacity="1.00" d=" M 159.44 136.57 C 161.78 138.43 164.02 140.65 167.04 141.32 C 172.76 143.08 179.17 140.68 184.51 143.95 C 185.10 145.55 185.76 147.15 186.61 148.65 C 186.95 149.25 187.62 150.46 187.96 151.06 C 190.56 148.17 192.54 144.77 195.23 141.97 C 196.52 141.67 197.83 141.44 199.16 141.28 C 200.23 145.18 200.77 149.60 198.24 153.08 C 196.55 156.64 193.10 158.56 189.48 159.66 C 185.94 164.93 181.28 169.37 178.02 174.84 C 175.45 180.65 169.64 184.18 163.66 185.60 C 158.68 186.64 153.79 184.66 149.30 182.71 C 146.86 181.69 144.63 180.08 143.33 177.73 C 139.91 172.19 135.48 167.32 132.53 161.49 C 130.79 161.52 129.03 161.69 127.30 161.51 C 121.57 158.68 116.73 153.59 115.18 147.27 C 116.09 145.86 117.00 144.45 117.90 143.04 C 117.61 142.39 117.03 141.08 116.75 140.43 C 119.28 140.86 121.81 141.32 124.35 141.66 C 125.15 144.15 125.49 146.90 127.04 149.07 C 128.70 150.43 130.94 150.70 132.91 151.41 C 133.34 149.39 133.04 147.06 134.15 145.26 C 136.65 143.09 140.02 142.34 143.21 141.79 C 149.09 141.44 154.95 140.80 160.84 140.47 C 160.36 139.17 159.90 137.87 159.44 136.57 M 144.72 147.44 C 150.44 148.55 156.17 146.63 161.93 147.17 C 161.93 146.85 161.92 146.22 161.92 145.90 C 156.21 146.80 150.37 146.23 144.72 147.44 M 162.17 147.97 C 167.46 147.83 172.75 147.35 178.06 147.38 C 172.91 146.37 166.95 145.47 162.17 147.97 M 117.71 149.94 C 118.90 151.85 120.39 153.70 122.67 154.34 C 121.48 152.40 119.73 150.93 117.71 149.94 M 154.55 155.34 C 157.74 155.41 160.87 154.74 164.05 154.56 C 166.39 154.62 168.70 155.45 171.05 155.02 C 165.75 153.90 159.52 152.50 154.55 155.34 M 155.22 167.56 C 160.27 167.39 165.60 168.37 170.49 166.81 C 165.41 166.58 160.17 166.09 155.22 167.56 M 160.19 172.88 C 159.98 173.38 159.56 174.40 159.35 174.90 C 160.97 175.12 162.60 175.10 164.19 174.68 C 163.21 173.41 161.67 173.13 160.19 172.88 Z" />
<path fill="#fec64d" opacity="1.00" d=" M 57.64 139.49 C 61.17 139.04 64.77 138.75 68.26 139.60 C 64.89 141.13 61.14 139.78 57.64 139.49 Z" />
<path fill="#fec64d" opacity="1.00" d=" M 186.32 139.26 C 187.68 137.53 190.02 139.79 188.21 141.13 C 186.90 142.76 184.49 140.55 186.32 139.26 Z" />
<path fill="#fec64d" opacity="1.00" d=" M 289.70 140.69 C 290.71 138.44 293.39 139.20 295.24 139.76 C 294.38 142.38 293.67 145.04 293.06 147.73 C 291.18 145.96 288.23 143.58 289.70 140.69 Z" />
<path fill="#fec64d" opacity="1.00" d=" M 54.63 143.21 C 53.31 142.25 53.41 141.40 54.94 140.64 C 56.23 141.58 56.12 142.44 54.63 143.21 Z" />
<path fill="#fec64d" opacity="1.00" d=" M 57.30 141.93 C 60.15 141.50 63.10 141.51 65.88 142.37 C 66.34 144.08 66.31 145.86 66.53 147.61 C 63.22 146.14 60.03 144.34 57.30 141.93 Z" />
<path fill="#fec64d" opacity="1.00" d=" M 128.22 142.40 C 129.63 142.12 130.21 142.66 129.98 144.01 C 128.57 144.31 127.98 143.78 128.22 142.40 Z" />
<path fill="#fec64d" opacity="1.00" d=" M 284.06 141.99 C 286.11 144.00 287.63 146.78 286.80 149.74 C 285.50 152.09 282.83 151.18 281.01 150.07 C 282.34 147.51 283.29 144.77 284.06 141.99 Z" />
<path fill="#fec64d" opacity="1.00" d=" M 263.21 143.97 C 264.08 142.81 264.79 142.87 265.36 144.17 C 264.46 145.31 263.74 145.25 263.21 143.97 Z" />
<path fill="#fec64d" opacity="1.00" d=" M 23.72 148.44 C 25.49 146.73 27.46 145.26 29.55 143.97 C 29.94 145.95 30.30 147.94 30.61 149.93 C 28.31 149.46 26.01 148.97 23.72 148.44 Z" />
<path fill="#fec64d" opacity="1.00" d=" M 253.08 144.17 C 254.89 143.78 256.71 144.28 258.50 144.60 C 257.27 145.68 255.97 146.67 254.68 147.65 C 253.76 146.67 252.74 145.65 253.08 144.17 Z" />
<path fill="#fec64d" opacity="1.00" d=" M 83.80 145.30 C 86.54 147.08 89.76 148.65 90.68 152.10 C 89.53 152.19 88.39 152.28 87.25 152.38 C 87.56 151.60 87.86 150.84 88.17 150.07 C 86.84 148.36 85.39 146.76 83.80 145.30 Z" />
<path fill="#fec64d" opacity="1.00" d=" M 126.64 144.54 C 128.90 145.59 131.71 146.52 132.03 149.41 C 130.61 149.06 129.20 148.70 127.79 148.33 C 127.39 147.07 127.00 145.80 126.64 144.54 Z" />
<path fill="#fec64d" opacity="1.00" d=" M 78.31 146.05 C 80.84 146.73 83.44 147.51 85.39 149.37 C 83.85 151.94 79.97 149.93 77.45 150.12 C 77.74 148.76 78.03 147.40 78.31 146.05 Z" />
<path fill="#fec64d" opacity="1.00" d=" M 250.38 146.19 C 250.75 146.84 250.75 146.84 250.38 146.19 Z" />
<path fill="#fec64d" opacity="1.00" d=" M 73.26 147.84 C 73.44 146.18 76.42 146.10 76.51 147.84 C 76.29 149.40 73.38 149.47 73.26 147.84 Z" />
<path fill="#fec64d" opacity="1.00" d=" M 234.38 148.52 C 236.20 147.86 240.89 145.95 240.06 149.78 C 238.09 149.92 235.81 150.19 234.38 148.52 Z" />
<path fill="#fec64d" opacity="1.00" d=" M 229.95 149.24 C 231.30 148.33 235.31 152.40 232.19 152.11 C 230.94 151.95 229.02 150.65 229.95 149.24 Z" />
<path fill="#fec64d" opacity="1.00" d=" M 249.69 157.70 C 251.71 157.15 253.76 156.73 255.77 156.13 C 254.55 158.18 251.67 157.30 249.69 157.70 Z" />
<path fill="#fec64d" opacity="1.00" d=" M 31.20 189.10 C 32.94 187.46 35.45 187.32 37.70 187.07 C 37.55 189.75 37.30 192.43 37.08 195.11 C 33.57 195.98 30.08 196.95 26.55 197.74 C 27.59 194.64 28.60 191.28 31.20 189.10 Z" />
<path fill="#fec64d" opacity="1.00" d=" M 285.69 187.05 C 286.74 190.20 286.55 194.74 282.90 196.06 C 281.23 195.67 280.24 194.23 279.20 193.01 C 281.63 191.33 283.73 189.25 285.69 187.05 Z" />
<path fill="#fec64d" opacity="1.00" d=" M 70.25 205.36 C 70.48 204.33 69.10 201.95 70.95 202.15 C 72.55 201.59 72.18 204.24 72.80 205.16 C 72.16 205.21 70.88 205.31 70.25 205.36 Z" />
<path fill="#fec64d" opacity="1.00" d=" M 250.23 203.44 C 250.89 203.46 252.23 203.49 252.90 203.50 C 252.55 205.13 251.76 206.54 250.20 207.30 C 250.19 206.01 250.19 204.72 250.23 203.44 Z" />
<path fill="#fec64d" opacity="1.00" d=" M 73.63 210.85 C 72.15 211.95 70.09 211.52 69.57 209.66 C 70.06 209.63 71.03 209.56 71.51 209.52 C 72.04 209.85 73.10 210.52 73.63 210.85 Z" />
<path fill="#fec64d" opacity="1.00" d=" M 61.22 225.85 C 64.35 226.10 67.29 227.36 70.31 228.16 C 70.16 232.55 70.13 236.94 70.14 241.33 C 66.41 242.89 61.69 243.66 58.43 240.68 C 53.52 236.67 55.94 228.39 61.22 225.85 M 61.32 228.32 C 57.82 230.16 56.92 234.97 58.80 238.27 C 60.87 241.12 64.86 239.89 67.85 240.06 C 67.96 236.48 67.98 232.91 67.94 229.34 C 65.76 228.92 63.57 228.03 61.32 228.32 Z" />
<path fill="#fec64d" opacity="1.00" d=" M 51.56 254.71 C 58.05 253.28 63.87 250.01 69.83 247.22 C 71.56 251.66 73.91 255.82 76.46 259.84 C 68.16 258.12 59.85 256.47 51.56 254.71 M 65.42 250.10 C 63.27 251.41 59.46 252.00 60.11 255.32 C 64.44 256.78 68.91 257.89 73.46 258.41 C 72.71 255.47 71.74 252.53 69.94 250.06 C 69.15 247.88 66.78 249.62 65.42 250.10 Z" />
</g>
<g id="#020102ff">
<path fill="#020102" opacity="1.00" d=" M 142.57 24.00 C 147.46 21.30 152.14 18.20 157.09 15.61 C 159.66 15.43 162.08 16.76 164.45 17.62 C 163.82 20.19 163.09 22.73 162.32 25.26 C 160.17 24.00 158.05 22.68 155.93 21.39 C 155.26 22.30 154.59 23.22 153.92 24.14 C 155.88 25.78 158.34 27.03 159.61 29.33 C 161.18 32.98 160.67 37.07 160.85 40.94 C 161.76 40.92 163.58 40.90 164.50 40.88 C 164.15 42.03 163.81 43.17 163.47 44.32 C 162.84 44.46 161.58 44.75 160.95 44.89 C 160.76 50.27 161.22 55.65 161.20 61.03 C 161.36 66.07 160.98 71.17 162.07 76.12 C 156.78 76.84 151.55 77.89 146.27 78.68 C 147.37 73.52 146.83 68.25 146.82 63.03 C 146.76 56.96 146.73 50.88 146.43 44.82 C 145.46 44.80 143.53 44.77 142.57 44.76 C 143.27 42.86 143.93 40.68 146.47 41.04 C 146.18 35.22 147.57 28.30 142.57 24.00 Z" />
</g>
<g id="#050504ff">
<path fill="#050504" opacity="1.00" d=" M 173.49 20.38 C 176.02 21.97 178.52 23.59 181.04 25.19 C 183.73 24.14 186.43 23.11 189.16 22.16 C 186.87 26.93 184.29 31.55 182.03 36.32 C 180.47 36.17 178.92 36.00 177.37 35.82 C 176.09 30.67 174.82 25.52 173.49 20.38 Z" />
</g>
<g id="#020203ff">
<path fill="#020203" opacity="1.00" d=" M 202.22 29.61 C 204.23 31.71 206.23 33.81 208.22 35.94 C 211.04 35.17 213.86 34.44 216.69 33.67 C 215.21 38.83 213.67 43.97 212.29 49.15 C 213.04 49.36 214.54 49.79 215.29 50.01 C 214.71 50.90 214.14 51.79 213.56 52.69 C 212.93 52.82 211.68 53.08 211.05 53.22 C 209.83 57.63 208.61 62.03 207.24 66.40 C 208.49 67.49 209.77 68.57 211.04 69.64 C 207.04 71.38 202.60 73.09 198.21 71.72 C 195.15 71.01 191.20 68.72 192.16 64.98 C 193.40 59.46 195.29 54.10 196.78 48.64 C 195.58 48.24 194.38 47.85 193.18 47.45 C 193.74 46.71 194.85 45.24 195.40 44.51 C 196.00 44.58 197.21 44.72 197.81 44.79 C 199.26 39.72 200.78 34.68 202.22 29.61 Z" />
<path fill="#020203" opacity="1.00" d=" M 222.75 55.38 C 226.91 55.91 231.06 56.49 235.23 56.92 C 236.83 59.62 238.38 62.35 240.03 65.03 C 243.77 65.91 247.55 66.68 251.18 67.97 C 254.31 69.13 255.47 72.65 256.63 75.46 C 256.56 76.76 256.49 78.06 256.40 79.36 C 254.15 82.93 251.75 86.40 249.45 89.94 C 250.13 91.59 250.80 93.24 251.47 94.89 C 247.45 94.08 243.29 93.80 239.40 92.49 C 237.47 90.07 236.07 87.27 234.29 84.75 C 237.64 81.34 240.09 77.17 242.17 72.90 C 241.36 70.34 239.43 68.52 237.00 67.48 C 234.58 70.80 232.35 74.24 230.26 77.77 C 230.94 79.33 231.62 80.89 232.28 82.46 C 228.24 81.73 224.19 81.01 220.17 80.20 C 218.47 77.51 216.79 74.81 215.11 72.11 C 219.09 68.36 221.37 63.28 224.54 58.89 C 223.94 57.72 223.34 56.55 222.75 55.38 Z" />
</g>
<g id="#030102ff">
<path fill="#030102" opacity="1.00" d=" M 167.35 43.55 C 171.76 43.31 175.75 41.28 179.89 39.93 C 182.07 41.36 184.23 42.80 186.40 44.24 C 185.96 49.52 185.13 54.76 184.84 60.05 C 185.49 61.80 187.39 62.72 188.67 64.00 C 184.68 65.11 180.75 66.42 176.75 67.52 C 174.15 65.77 171.45 64.18 168.75 62.59 C 170.54 57.28 170.44 51.57 171.00 46.05 C 170.08 45.11 166.64 45.33 167.35 43.55 Z" />
</g>
<g id="#020202ff">
<path fill="#020202" opacity="1.00" d=" M 79.94 65.32 C 86.00 60.96 91.90 56.37 98.00 52.05 C 103.21 53.05 108.68 53.49 113.39 56.17 C 113.19 56.41 112.77 56.91 112.56 57.15 C 109.01 61.37 104.59 64.77 101.06 69.01 C 106.56 70.45 112.06 68.61 116.30 65.03 C 116.95 65.30 118.24 65.82 118.89 66.08 C 113.09 71.46 107.79 79.32 99.12 79.68 C 94.83 80.19 90.56 80.85 86.26 81.31 C 86.92 80.21 87.59 79.12 88.26 78.02 C 86.49 74.25 85.13 70.29 83.26 66.57 C 82.18 66.09 81.07 65.67 79.94 65.32 M 96.50 59.82 C 97.32 62.09 98.23 64.33 99.22 66.54 C 100.65 65.08 102.07 63.60 103.46 62.10 C 101.18 61.21 98.87 60.44 96.50 59.82 Z" />
<path fill="#020202" opacity="1.00" d=" M 235.74 130.34 C 237.23 129.29 238.73 128.25 240.23 127.20 C 242.85 130.96 244.49 135.27 246.95 139.12 C 252.86 140.78 259.50 139.12 265.20 141.85 C 268.13 143.45 268.39 147.27 268.17 150.24 C 269.02 151.80 270.33 153.22 270.50 155.08 C 268.37 159.04 263.83 160.65 259.79 161.93 C 255.27 163.50 250.51 164.07 245.84 165.00 C 254.35 166.31 262.74 162.93 270.08 158.91 C 270.61 160.54 271.04 162.21 271.43 163.89 C 266.74 167.04 261.52 169.47 255.89 170.28 C 250.22 171.50 244.45 170.38 238.74 170.34 C 244.44 173.08 251.03 172.77 257.16 172.10 C 261.95 171.61 265.96 168.81 270.24 166.87 C 271.90 168.76 271.71 171.28 271.75 173.63 C 264.89 177.40 257.03 178.46 249.31 178.60 C 249.31 178.81 249.32 179.25 249.32 179.46 C 256.75 180.25 264.35 179.24 271.08 175.93 C 271.28 177.35 271.92 178.84 271.40 180.26 C 270.39 181.79 268.50 182.27 266.86 182.78 C 257.00 185.29 246.38 184.78 236.76 181.50 C 233.96 180.34 229.80 179.21 230.48 175.28 C 232.01 175.30 233.55 175.33 235.09 175.36 C 233.64 174.50 232.14 173.71 230.78 172.73 C 230.34 169.69 230.69 166.54 229.70 163.55 C 233.22 162.64 236.76 164.88 240.39 164.41 C 237.45 162.87 234.11 162.45 230.86 162.09 C 229.40 160.71 229.07 158.86 229.27 156.93 C 227.80 153.91 226.65 149.89 229.11 147.05 C 232.22 144.18 236.48 143.13 240.11 141.08 C 238.84 137.42 237.46 133.81 235.74 130.34 M 263.21 143.97 C 263.74 145.25 264.46 145.31 265.36 144.17 C 264.79 142.87 264.08 142.81 263.21 143.97 M 253.08 144.17 C 252.74 145.65 253.76 146.67 254.68 147.65 C 255.97 146.67 257.27 145.68 258.50 144.60 C 256.71 144.28 254.89 143.78 253.08 144.17 M 250.38 146.19 C 250.75 146.84 250.75 146.84 250.38 146.19 M 234.38 148.52 C 235.81 150.19 238.09 149.92 240.06 149.78 C 240.89 145.95 236.20 147.86 234.38 148.52 M 229.95 149.24 C 229.02 150.65 230.94 151.95 232.19 152.11 C 235.31 152.40 231.30 148.33 229.95 149.24 M 249.69 157.70 C 251.67 157.30 254.55 158.18 255.77 156.13 C 253.76 156.73 251.71 157.15 249.69 157.70 Z" />
</g>
<g id="#010204ff">
<path fill="#010204" opacity="1.00" d=" M 54.60 65.18 C 55.71 62.44 56.74 59.66 57.73 56.86 C 61.12 61.07 64.48 65.30 67.94 69.45 C 68.57 68.87 69.84 67.70 70.47 67.12 C 70.95 68.98 71.85 70.94 70.65 72.75 C 73.46 76.40 76.37 79.98 79.34 83.52 C 80.91 83.05 82.49 82.59 84.07 82.16 C 83.05 86.26 82.07 90.76 78.62 93.58 C 76.36 95.65 72.43 97.83 69.73 95.36 C 65.64 91.10 62.32 86.17 58.33 81.82 C 57.47 82.59 56.62 83.37 55.76 84.15 C 55.40 83.24 54.69 81.43 54.33 80.52 C 54.78 80.12 55.68 79.31 56.13 78.91 C 52.82 74.74 49.47 70.60 46.05 66.52 C 48.89 66.00 51.73 65.53 54.60 65.18 Z" />
</g>
<g id="#dacc70ff">
<path fill="#dacc70" opacity="1.00" d=" M 101.06 69.01 C 104.59 64.77 109.01 61.37 112.56 57.15 C 113.17 61.49 108.11 63.27 106.67 66.92 C 109.79 66.95 112.46 65.41 115.13 64.04 C 116.65 63.08 119.28 63.98 118.89 66.08 C 118.24 65.82 116.95 65.30 116.30 65.03 C 112.06 68.61 106.56 70.45 101.06 69.01 Z" />
</g>
<g id="#efcb4eff">
<path fill="#efcb4e" opacity="1.00" d=" M 231.90 77.28 C 233.77 74.61 235.24 71.52 237.88 69.48 C 239.39 69.87 240.70 71.27 240.31 72.93 C 239.23 76.36 237.52 79.73 234.87 82.21 C 232.55 81.81 232.71 79.01 231.90 77.28 Z" />
</g>
<g id="#ffc749ff">
<path fill="#ffc749" opacity="1.00" d=" M 256.63 75.46 C 258.74 75.26 258.48 79.88 256.40 79.36 C 256.49 78.06 256.56 76.76 256.63 75.46 Z" />
<path fill="#ffc749" opacity="1.00" d=" M 251.33 233.38 C 252.39 231.49 255.04 233.44 255.16 235.02 C 255.45 240.15 255.71 245.32 255.50 250.45 C 253.10 251.77 251.78 248.28 251.34 246.46 C 250.62 242.24 249.67 237.38 251.33 233.38 Z" />
</g>
<g id="#040305ff">
<path fill="#040305" opacity="1.00" d=" M 133.80 81.94 C 150.77 77.40 168.84 78.41 185.66 83.12 C 188.56 81.91 192.06 81.45 194.90 83.07 C 198.69 85.47 201.03 89.64 205.02 91.77 C 220.25 99.38 231.37 113.01 240.34 127.12 L 240.23 127.20 C 238.73 128.25 237.23 129.29 235.74 130.34 C 232.12 123.58 227.73 117.10 221.95 112.00 C 217.06 107.60 212.40 102.82 206.59 99.62 C 206.10 100.79 205.62 101.97 205.13 103.14 C 203.97 101.37 202.60 99.72 200.98 98.34 C 200.18 97.86 199.37 97.40 198.57 96.93 C 195.12 93.73 190.52 94.56 186.24 94.69 C 185.79 94.72 184.89 94.79 184.44 94.82 L 183.22 94.89 C 182.95 93.04 182.78 91.19 182.59 89.34 C 169.63 84.85 155.46 83.69 141.95 86.13 C 138.70 86.87 133.87 86.34 132.52 90.19 C 131.19 93.62 129.85 97.26 126.45 99.19 C 126.10 103.73 125.65 108.26 124.60 112.70 C 126.70 115.80 128.74 118.93 130.61 122.19 C 131.11 122.08 132.12 121.87 132.63 121.76 C 133.98 122.11 135.32 122.51 136.66 122.91 L 134.11 124.79 C 135.31 124.78 137.71 124.74 138.91 124.73 C 137.47 125.51 136.03 126.29 134.59 127.07 C 136.79 127.66 139.00 128.27 141.16 129.02 C 137.61 129.79 133.53 129.24 130.43 131.47 C 128.85 136.79 135.57 139.39 139.68 140.29 C 140.87 140.76 142.04 141.27 143.21 141.79 C 140.02 142.34 136.65 143.09 134.15 145.26 C 133.04 147.06 133.34 149.39 132.91 151.41 C 130.94 150.70 128.70 150.43 127.04 149.07 C 125.49 146.90 125.15 144.15 124.35 141.66 C 121.81 141.32 119.28 140.86 116.75 140.43 C 117.03 141.08 117.61 142.39 117.90 143.04 C 117.00 144.45 116.09 145.86 115.18 147.27 C 116.73 153.59 121.57 158.68 127.30 161.51 C 129.03 161.69 130.79 161.52 132.53 161.49 C 135.48 167.32 139.91 172.19 143.33 177.73 C 144.63 180.08 146.86 181.69 149.30 182.71 C 153.79 184.66 158.68 186.64 163.66 185.60 C 169.64 184.18 175.45 180.65 178.02 174.84 C 178.78 175.78 179.54 176.71 180.30 177.65 C 178.78 185.08 184.52 191.02 186.15 197.86 C 186.57 198.79 185.97 199.67 185.65 200.50 C 183.67 195.21 181.63 189.44 177.19 185.71 C 170.55 189.30 169.36 197.23 165.81 203.17 C 163.77 203.96 161.48 204.09 159.33 203.74 C 156.10 202.10 154.99 198.37 153.36 195.40 C 151.98 192.37 149.02 190.58 146.40 188.74 C 145.31 187.97 143.56 187.36 142.43 188.32 C 138.08 191.87 136.77 197.73 132.87 201.66 C 134.15 194.40 139.97 189.03 142.18 182.09 C 142.75 178.24 139.70 175.23 137.26 172.70 C 131.53 167.02 123.54 163.94 118.73 157.30 C 115.87 153.69 115.72 148.73 112.87 145.12 C 110.85 142.62 106.74 142.80 105.30 139.66 C 100.60 133.32 106.14 124.11 100.15 118.40 C 100.44 114.53 102.04 110.91 103.73 107.47 C 106.92 103.04 113.16 101.39 115.17 95.99 C 109.51 97.82 104.84 101.64 100.50 105.57 C 90.17 114.77 82.05 126.64 78.00 139.92 C 82.31 143.33 88.55 144.52 91.39 149.59 C 92.54 152.04 91.84 155.22 90.32 157.35 C 84.06 159.37 77.25 158.55 70.84 157.67 C 63.81 156.33 56.66 154.53 50.66 150.47 C 52.00 145.94 51.56 139.34 57.00 137.51 C 61.53 137.10 66.09 137.48 70.61 137.82 C 73.98 131.51 76.69 124.83 80.82 118.95 C 88.23 107.43 99.03 98.57 110.46 91.25 C 114.12 87.64 116.84 82.50 122.22 81.14 C 124.16 80.23 126.08 81.27 127.80 82.15 C 129.64 83.41 131.84 82.28 133.80 81.94 M 125.19 86.70 C 125.18 85.31 125.13 83.92 125.06 82.53 C 122.43 82.84 122.52 86.68 125.19 86.70 M 189.47 85.04 C 189.05 86.44 189.53 86.94 190.91 86.54 C 191.33 85.14 190.85 84.64 189.47 85.04 M 116.97 87.38 C 116.54 89.02 117.13 89.57 118.71 89.04 C 119.14 87.39 118.55 86.84 116.97 87.38 M 124.56 89.15 C 125.79 89.81 127.11 90.26 128.44 90.66 C 126.35 94.67 120.80 91.11 117.93 94.53 C 121.01 94.43 124.00 95.08 126.91 96.04 C 128.43 93.93 129.49 91.54 129.82 88.94 C 128.06 88.59 126.28 88.60 124.56 89.15 M 184.86 91.88 C 186.76 91.82 188.66 91.76 190.56 91.61 C 189.06 90.85 187.50 90.23 185.94 89.62 C 185.67 90.18 185.13 91.31 184.86 91.88 M 115.99 98.91 C 112.64 101.57 109.42 104.42 106.40 107.45 C 105.17 108.53 105.11 110.19 104.99 111.70 C 103.68 112.95 101.46 113.85 101.69 116.02 C 102.62 118.31 104.32 120.36 104.48 122.92 C 105.14 127.71 102.95 133.02 105.76 137.39 C 106.67 138.86 108.04 140.68 110.01 140.38 C 113.73 139.78 116.76 136.56 117.82 133.05 C 117.46 129.09 114.70 125.71 114.88 121.62 C 117.33 126.48 121.58 130.70 127.32 131.02 C 126.85 126.76 127.51 122.22 125.70 118.22 C 124.77 115.89 122.28 115.06 120.22 114.06 C 122.46 111.25 122.96 107.71 122.95 104.23 C 120.44 105.50 118.01 106.94 115.37 107.94 C 118.02 104.83 123.43 102.10 121.77 97.23 C 119.70 96.91 117.56 97.53 115.99 98.91 M 120.58 138.35 C 121.76 139.72 123.66 139.22 125.22 139.33 C 125.10 137.47 125.67 135.26 124.27 133.74 C 123.26 132.24 121.32 132.06 119.78 131.44 C 119.48 133.73 118.14 136.76 120.58 138.35 M 127.10 135.04 C 127.82 138.51 129.37 142.39 133.43 142.84 C 132.67 139.34 130.43 136.41 127.10 135.04 M 57.64 139.49 C 61.14 139.78 64.89 141.13 68.26 139.60 C 64.77 138.75 61.17 139.04 57.64 139.49 M 54.63 143.21 C 56.12 142.44 56.23 141.58 54.94 140.64 C 53.41 141.40 53.31 142.25 54.63 143.21 M 57.30 141.93 C 60.03 144.34 63.22 146.14 66.53 147.61 C 66.31 145.86 66.34 144.08 65.88 142.37 C 63.10 141.51 60.15 141.50 57.30 141.93 M 128.22 142.40 C 127.98 143.78 128.57 144.31 129.98 144.01 C 130.21 142.66 129.63 142.12 128.22 142.40 M 68.08 145.13 C 67.53 146.75 68.07 147.31 69.71 146.81 C 70.25 145.19 69.71 144.63 68.08 145.13 M 83.80 145.30 C 85.39 146.76 86.84 148.36 88.17 150.07 C 87.86 150.84 87.56 151.60 87.25 152.38 C 88.39 152.28 89.53 152.19 90.68 152.10 C 89.76 148.65 86.54 147.08 83.80 145.30 M 126.64 144.54 C 127.00 145.80 127.39 147.07 127.79 148.33 C 129.20 148.70 130.61 149.06 132.03 149.41 C 131.71 146.52 128.90 145.59 126.64 144.54 M 78.31 146.05 C 78.03 147.40 77.74 148.76 77.45 150.12 C 79.97 149.93 83.85 151.94 85.39 149.37 C 83.44 147.51 80.84 146.73 78.31 146.05 M 73.26 147.84 C 73.38 149.47 76.29 149.40 76.51 147.84 C 76.42 146.10 73.44 146.18 73.26 147.84 M 54.31 148.27 C 54.79 148.79 54.79 148.79 54.31 148.27 Z" />
</g>
<g id="#030204ff">
<path fill="#030204" opacity="1.00" d=" M 264.86 85.23 C 270.70 90.02 276.59 94.74 282.32 99.66 C 282.76 104.77 283.07 109.93 282.48 115.05 C 276.53 114.03 272.17 109.16 266.77 106.70 C 266.25 112.56 269.94 117.58 274.59 120.70 C 274.28 121.25 273.66 122.34 273.35 122.89 C 267.72 119.75 261.67 116.71 257.61 111.54 C 255.01 106.27 253.34 100.61 250.87 95.29 C 252.17 95.66 253.48 96.03 254.79 96.40 C 258.18 93.84 261.55 91.26 264.93 88.70 C 264.91 87.84 264.88 86.10 264.86 85.23 M 268.51 104.40 C 270.30 105.39 272.09 106.39 273.92 107.32 C 274.15 104.89 274.30 102.45 274.32 100.01 C 272.34 101.43 270.39 102.88 268.51 104.40 Z" />
<path fill="#030204" opacity="1.00" d=" M 49.22 158.53 C 49.10 156.43 49.27 154.28 50.61 152.56 C 62.39 159.67 76.53 160.26 89.90 160.51 C 89.71 162.21 89.33 164.47 87.04 164.23 C 78.25 164.81 69.13 166.24 60.55 163.47 C 57.04 162.44 53.98 160.35 50.52 159.20 C 50.19 159.03 49.54 158.69 49.22 158.53 Z" />
<path fill="#030204" opacity="1.00" d=" M 17.43 185.89 C 18.58 178.15 27.57 172.39 34.88 176.19 C 40.56 179.97 45.00 186.05 45.75 192.94 C 45.94 198.74 44.41 204.52 45.32 210.31 C 43.26 209.90 41.28 208.50 39.13 209.28 C 35.42 210.17 31.78 211.34 28.06 212.24 C 26.26 206.08 23.76 200.09 20.26 194.69 C 18.60 192.08 16.62 189.17 17.43 185.89 M 31.20 189.10 C 28.60 191.28 27.59 194.64 26.55 197.74 C 30.08 196.95 33.57 195.98 37.08 195.11 C 37.30 192.43 37.55 189.75 37.70 187.07 C 35.45 187.32 32.94 187.46 31.20 189.10 Z" />
</g>
<g id="#020204ff">
<path fill="#020204" opacity="1.00" d=" M 43.93 95.04 C 45.16 93.01 45.99 90.78 47.06 88.66 C 48.44 90.86 49.16 93.36 49.67 95.89 C 52.70 94.29 56.41 92.69 59.74 94.43 C 63.10 96.01 64.21 100.18 63.47 103.59 C 62.48 108.61 60.06 113.25 57.33 117.53 C 55.79 120.04 52.60 120.58 50.58 122.57 C 47.78 125.12 47.35 129.09 46.37 132.53 C 44.56 130.65 43.60 128.23 42.99 125.73 L 44.89 125.52 C 44.42 125.49 43.46 125.44 42.99 125.42 C 43.06 124.83 43.21 123.65 43.28 123.07 C 40.36 123.93 37.05 125.36 34.13 123.70 C 31.39 122.32 30.41 118.89 30.87 116.03 C 31.54 110.21 35.85 105.79 37.41 100.26 C 39.78 98.81 42.42 97.48 43.93 95.04 M 38.63 107.97 C 39.36 109.68 40.86 111.90 43.02 111.17 C 46.10 110.20 45.70 106.43 45.75 103.89 C 43.37 105.23 40.93 106.48 38.63 107.97 M 47.63 114.43 C 50.43 112.98 53.29 111.62 56.18 110.36 C 55.20 109.14 54.53 107.55 53.07 106.82 C 49.24 106.98 47.84 111.24 47.63 114.43 Z" />
</g>
<g id="#0d0304ff">
<path fill="#0d0304" opacity="1.00" d=" M 183.22 94.89 L 184.44 94.82 C 188.74 97.16 193.79 97.43 198.57 96.93 C 199.37 97.40 200.18 97.86 200.98 98.34 C 198.39 98.96 195.80 99.60 193.22 100.23 C 194.37 102.85 195.69 105.40 196.99 107.95 C 195.84 107.61 194.68 107.27 193.53 106.92 C 192.70 110.25 193.12 113.67 194.35 116.83 C 192.32 118.24 189.99 119.48 188.67 121.66 C 187.87 124.14 188.25 126.80 188.18 129.37 C 192.50 128.29 196.85 126.90 200.24 123.89 C 198.22 129.45 197.53 135.98 200.83 141.20 C 202.58 143.95 206.76 142.57 208.38 140.36 C 213.18 133.86 212.26 124.70 208.58 117.90 C 208.91 117.33 209.58 116.20 209.92 115.64 C 207.91 111.64 206.72 107.31 205.13 103.14 C 205.62 101.97 206.10 100.79 206.59 99.62 C 207.94 106.51 211.76 112.89 211.43 120.05 C 211.88 125.69 213.53 131.48 211.82 137.07 C 210.83 140.88 208.18 143.99 204.99 146.21 C 200.76 148.98 200.61 154.74 197.02 158.06 C 191.00 164.18 184.04 169.71 180.30 177.65 C 179.54 176.71 178.78 175.78 178.02 174.84 C 181.28 169.37 185.94 164.93 189.48 159.66 C 193.10 158.56 196.55 156.64 198.24 153.08 C 200.77 149.60 200.23 145.18 199.16 141.28 C 197.83 141.44 196.52 141.67 195.23 141.97 C 192.54 144.77 190.56 148.17 187.96 151.06 C 187.62 150.46 186.95 149.25 186.61 148.65 C 185.76 147.15 185.10 145.55 184.51 143.95 C 179.17 140.68 172.76 143.08 167.04 141.32 C 164.02 140.65 161.78 138.43 159.44 136.57 C 159.90 137.87 160.36 139.17 160.84 140.47 C 154.95 140.80 149.09 141.44 143.21 141.79 C 142.04 141.27 140.87 140.76 139.68 140.29 C 144.25 140.17 148.91 140.39 153.38 139.33 C 156.56 138.56 159.57 135.47 158.29 131.99 C 155.61 130.79 152.56 131.14 149.73 130.64 C 153.60 128.85 157.82 130.20 161.84 130.49 C 158.72 128.80 155.47 127.41 152.28 125.90 C 153.87 126.11 157.04 126.53 158.63 126.74 C 152.42 122.15 144.06 120.41 136.66 122.91 C 135.32 122.51 133.98 122.11 132.63 121.76 C 136.18 120.28 140.00 120.01 143.78 119.62 C 149.03 115.43 154.00 110.85 158.98 106.34 C 162.56 109.67 166.69 112.55 169.41 116.69 C 170.34 118.03 171.35 119.62 173.17 119.72 C 177.18 120.31 181.19 121.27 185.24 121.46 C 189.26 118.15 188.62 112.59 190.21 108.11 C 190.75 105.96 191.84 103.50 190.41 101.45 C 188.24 99.01 184.92 97.79 183.22 94.89 M 155.12 113.18 L 154.19 112.70 C 151.35 114.45 148.98 116.84 147.64 119.94 C 149.03 120.81 150.42 121.68 151.82 122.53 C 152.36 122.19 153.43 121.51 153.96 121.18 C 155.88 124.66 160.15 124.50 163.10 122.45 C 164.86 122.23 166.57 121.78 168.26 121.24 C 167.84 117.67 166.80 113.55 162.66 112.87 C 160.48 113.79 157.79 115.01 155.60 113.42 C 156.92 113.11 159.34 112.68 159.43 111.04 C 157.99 110.12 155.17 111.44 155.12 113.18 M 158.96 127.27 C 162.75 126.83 166.25 124.92 170.12 125.07 C 168.28 126.29 166.28 127.25 164.39 128.40 C 166.41 128.76 168.44 129.03 170.44 129.50 C 167.64 130.08 164.80 130.47 162.02 131.17 C 162.47 132.92 162.20 135.13 163.53 136.52 C 168.24 139.38 173.77 141.04 179.29 139.85 C 180.46 140.34 181.63 140.84 182.80 141.34 C 185.48 136.45 192.22 135.45 193.89 129.83 C 187.62 129.19 186.49 136.75 181.83 139.22 C 182.87 136.49 184.69 133.95 184.85 130.95 C 185.28 128.33 181.83 128.77 180.19 128.05 C 180.31 127.20 180.44 126.34 180.57 125.49 C 181.55 125.44 183.53 125.34 184.51 125.29 C 181.93 122.98 178.53 121.58 175.02 121.85 C 169.33 122.19 163.65 124.00 158.96 127.27 M 196.75 140.28 C 197.94 137.70 197.53 134.90 196.54 132.33 C 195.46 134.91 194.42 138.07 196.75 140.28 M 188.87 147.12 C 192.21 144.06 193.67 139.52 193.19 135.07 C 191.41 138.85 187.65 142.69 188.87 147.12 M 186.32 139.26 C 184.49 140.55 186.90 142.76 188.21 141.13 C 190.02 139.79 187.68 137.53 186.32 139.26 Z" />
<path fill="#0d0304" opacity="1.00" d=" M 202.85 109.00 C 204.14 108.34 206.26 110.18 205.61 111.54 C 204.26 112.27 202.08 110.42 202.85 109.00 Z" />
<path fill="#0d0304" opacity="1.00" d=" M 144.72 147.44 C 150.37 146.23 156.21 146.80 161.92 145.90 C 161.92 146.22 161.93 146.85 161.93 147.17 C 156.17 146.63 150.44 148.55 144.72 147.44 Z" />
<path fill="#0d0304" opacity="1.00" d=" M 162.17 147.97 C 166.95 145.47 172.91 146.37 178.06 147.38 C 172.75 147.35 167.46 147.83 162.17 147.97 Z" />
<path fill="#0d0304" opacity="1.00" d=" M 117.71 149.94 C 119.73 150.93 121.48 152.40 122.67 154.34 C 120.39 153.70 118.90 151.85 117.71 149.94 Z" />
<path fill="#0d0304" opacity="1.00" d=" M 154.55 155.34 C 159.52 152.50 165.75 153.90 171.05 155.02 C 168.70 155.45 166.39 154.62 164.05 154.56 C 160.87 154.74 157.74 155.41 154.55 155.34 Z" />
<path fill="#0d0304" opacity="1.00" d=" M 155.22 167.56 C 160.17 166.09 165.41 166.58 170.49 166.81 C 165.60 168.37 160.27 167.39 155.22 167.56 Z" />
<path fill="#0d0304" opacity="1.00" d=" M 160.19 172.88 C 161.67 173.13 163.21 173.41 164.19 174.68 C 162.60 175.10 160.97 175.12 159.35 174.90 C 159.56 174.40 159.98 173.38 160.19 172.88 Z" />
</g>
<g id="#fbc650ff">
<path fill="#fbc650" opacity="1.00" d=" M 193.22 100.23 C 195.80 99.60 198.39 98.96 200.98 98.34 C 202.60 99.72 203.97 101.37 205.13 103.14 C 206.72 107.31 207.91 111.64 209.92 115.64 C 209.58 116.20 208.91 117.33 208.58 117.90 C 212.26 124.70 213.18 133.86 208.38 140.36 C 206.76 142.57 202.58 143.95 200.83 141.20 C 197.53 135.98 198.22 129.45 200.24 123.89 C 196.85 126.90 192.50 128.29 188.18 129.37 C 188.25 126.80 187.87 124.14 188.67 121.66 C 189.99 119.48 192.32 118.24 194.35 116.83 C 193.12 113.67 192.70 110.25 193.53 106.92 C 194.68 107.27 195.84 107.61 196.99 107.95 C 195.69 105.40 194.37 102.85 193.22 100.23 M 202.85 109.00 C 202.08 110.42 204.26 112.27 205.61 111.54 C 206.26 110.18 204.14 108.34 202.85 109.00 M 196.05 115.23 C 194.48 118.22 199.37 115.40 196.05 115.23 Z" />
</g>
<g id="#6b4426ff">
<path fill="#6b4426" opacity="1.00" d=" M 117.20 113.18 C 118.50 113.84 118.51 114.52 117.24 115.24 C 115.93 114.58 115.92 113.89 117.20 113.18 Z" />
</g>
<g id="#f4c750ff">
<path fill="#f4c750" opacity="1.00" d=" M 154.19 112.70 L 155.12 113.18 L 155.60 113.42 C 157.79 115.01 160.48 113.79 162.66 112.87 C 166.80 113.55 167.84 117.67 168.26 121.24 C 166.57 121.78 164.86 122.23 163.10 122.45 C 160.15 124.50 155.88 124.66 153.96 121.18 C 153.43 121.51 152.36 122.19 151.82 122.53 C 150.42 121.68 149.03 120.81 147.64 119.94 C 148.98 116.84 151.35 114.45 154.19 112.70 M 158.16 115.12 C 156.97 116.53 159.54 117.72 160.41 116.46 C 161.60 115.06 159.02 113.89 158.16 115.12 Z" />
</g>
<g id="#754e16ff">
<path fill="#754e16" opacity="1.00" d=" M 158.16 115.12 C 159.02 113.89 161.60 115.06 160.41 116.46 C 159.54 117.72 156.97 116.53 158.16 115.12 Z" />
</g>
<g id="#8d6205ff">
<path fill="#8d6205" opacity="1.00" d=" M 196.05 115.23 C 199.37 115.40 194.48 118.22 196.05 115.23 Z" />
</g>
<g id="#685332ff">
<path fill="#685332" opacity="1.00" d=" M 285.25 126.72 C 285.18 124.52 290.24 123.85 290.65 126.06 C 288.84 126.28 287.04 126.48 285.25 126.72 Z" />
</g>
<g id="#030304ff">
<path fill="#030304" opacity="1.00" d=" M 285.25 126.72 C 287.04 126.48 288.84 126.28 290.65 126.06 C 292.78 126.08 294.26 128.03 295.41 129.60 C 298.22 134.08 298.99 139.45 301.26 144.18 C 301.05 146.77 299.98 149.31 300.45 151.93 C 300.90 154.34 302.30 156.44 302.86 158.82 C 300.22 159.25 298.15 157.27 296.06 156.03 C 295.19 159.07 294.01 162.44 290.97 163.93 C 287.88 165.70 283.85 164.42 281.74 161.73 C 277.74 156.96 276.19 150.78 274.69 144.87 C 275.47 142.31 276.51 139.68 276.13 136.95 C 275.70 133.70 273.60 131.04 271.98 128.31 C 275.60 128.05 278.53 130.20 281.12 132.44 C 282.29 130.49 282.90 127.49 285.25 126.72 M 289.70 140.69 C 288.23 143.58 291.18 145.96 293.06 147.73 C 293.67 145.04 294.38 142.38 295.24 139.76 C 293.39 139.20 290.71 138.44 289.70 140.69 M 284.06 141.99 C 283.29 144.77 282.34 147.51 281.01 150.07 C 282.83 151.18 285.50 152.09 286.80 149.74 C 287.63 146.78 286.11 144.00 284.06 141.99 Z" />
</g>
<g id="#e3c672ff">
<path fill="#e3c672" opacity="1.00" d=" M 120.58 138.35 C 118.14 136.76 119.48 133.73 119.78 131.44 C 121.32 132.06 123.26 132.24 124.27 133.74 C 125.67 135.26 125.10 137.47 125.22 139.33 C 123.66 139.22 121.76 139.72 120.58 138.35 Z" />
<path fill="#e3c672" opacity="1.00" d=" M 284.18 226.35 C 285.74 227.57 288.06 228.63 288.17 230.93 C 289.13 241.25 287.40 251.73 288.80 262.01 C 292.01 264.26 295.98 265.88 297.12 270.05 C 292.58 272.87 287.02 271.90 282.04 273.18 C 278.93 273.78 275.74 275.58 272.56 274.37 C 264.96 271.59 258.51 266.49 251.05 263.41 C 252.20 262.40 253.35 261.39 254.51 260.38 C 248.84 259.97 243.37 261.65 237.84 262.51 C 236.13 263.02 234.75 261.79 233.77 260.55 C 241.84 259.66 249.70 257.51 257.75 256.57 C 257.10 258.51 256.42 260.46 255.67 262.37 C 260.84 265.32 265.56 269.10 271.05 271.45 C 273.95 272.92 277.08 271.34 280.08 271.15 C 285.05 270.70 289.92 269.60 294.88 269.09 C 291.97 266.87 288.43 265.21 286.36 262.11 C 285.88 251.77 285.94 241.38 286.00 231.01 C 285.16 229.56 284.44 228.02 284.18 226.35 Z" />
</g>
<g id="#020201ff">
<path fill="#020201" opacity="1.00" d=" M 18.08 142.80 C 21.55 139.00 25.28 135.43 29.46 132.42 C 32.89 137.33 31.92 143.92 33.47 149.52 C 38.50 146.53 39.70 140.21 39.15 134.81 C 39.93 134.55 40.71 134.30 41.49 134.06 C 42.91 140.39 44.53 147.01 43.31 153.50 C 40.89 158.79 38.10 163.93 35.32 169.04 C 34.83 167.88 34.34 166.72 33.84 165.57 C 29.61 164.63 25.36 163.79 21.11 162.96 C 20.30 163.72 19.50 164.48 18.68 165.23 C 18.46 157.75 18.24 150.28 18.08 142.80 M 23.72 148.44 C 26.01 148.97 28.31 149.46 30.61 149.93 C 30.30 147.94 29.94 145.95 29.55 143.97 C 27.46 145.26 25.49 146.73 23.72 148.44 Z" />
</g>
<g id="#be8e12ff">
<path fill="#be8e12" opacity="1.00" d=" M 136.42 136.27 C 136.87 136.83 136.87 136.83 136.42 136.27 Z" />
</g>
<g id="#32332dff">
<path fill="#32332d" opacity="1.00" d=" M 68.08 145.13 C 69.71 144.63 70.25 145.19 69.71 146.81 C 68.07 147.31 67.53 146.75 68.08 145.13 Z" />
</g>
<g id="#363837ff">
<path fill="#363837" opacity="1.00" d=" M 54.31 148.27 C 54.79 148.79 54.79 148.79 54.31 148.27 Z" />
</g>
<g id="#f4d483ff">
<path fill="#f4d483" opacity="1.00" d=" M 48.42 152.32 L 49.53 151.69 C 49.84 151.84 50.44 152.14 50.75 152.29 L 50.61 152.56 C 49.27 154.28 49.10 156.43 49.22 158.53 C 49.54 158.69 50.19 159.03 50.52 159.20 C 50.04 160.54 51.22 161.25 52.17 161.91 L 52.23 161.96 C 51.27 161.79 49.36 161.46 48.40 161.30 C 48.14 162.94 47.87 164.58 47.62 166.22 C 48.17 166.49 49.28 167.03 49.84 167.29 L 51.00 167.86 C 50.54 168.21 49.61 168.91 49.14 169.26 C 47.31 170.33 48.45 172.78 48.29 174.51 C 48.30 175.07 48.30 176.18 48.30 176.73 C 48.24 178.13 48.27 179.53 48.37 180.93 C 49.32 181.33 50.30 181.67 51.30 181.94 C 50.86 182.11 49.98 182.47 49.55 182.65 L 51.34 183.39 L 49.74 184.08 L 48.76 183.97 C 46.80 183.20 47.04 179.89 46.80 178.00 C 47.42 169.46 46.51 160.70 48.42 152.32 Z" />
</g>
<g id="#060506ff">
<path fill="#060506" opacity="1.00" d=" M 47.62 166.22 C 47.87 164.58 48.14 162.94 48.40 161.30 C 49.36 161.46 51.27 161.79 52.23 161.96 L 52.17 161.91 C 58.43 165.80 65.99 165.50 73.01 166.67 C 78.43 167.48 83.83 166.26 89.25 166.17 C 88.84 167.45 88.52 169.07 86.84 169.14 C 74.68 172.23 61.71 170.97 49.84 167.29 C 49.28 167.03 48.17 166.49 47.62 166.22 Z" />
</g>
<g id="#050204ff">
<path fill="#050204" opacity="1.00" d=" M 48.29 174.51 C 48.45 172.78 47.31 170.33 49.14 169.26 C 52.29 169.08 55.12 171.09 58.22 171.50 C 68.35 173.27 78.70 172.15 88.89 171.46 C 88.07 174.12 85.16 174.19 82.93 174.82 C 71.55 177.09 59.52 178.03 48.29 174.51 Z" />
</g>
<g id="#010304ff">
<path fill="#010304" opacity="1.00" d=" M 281.16 169.55 C 284.40 170.98 286.03 174.15 287.33 177.25 C 289.34 175.75 291.39 173.95 294.00 173.69 C 296.92 173.66 299.88 175.60 300.64 178.49 C 302.85 184.60 299.70 190.81 300.06 197.03 C 298.42 199.03 296.45 200.92 295.68 203.46 C 295.01 206.03 295.30 208.79 294.20 211.26 C 292.54 209.36 291.11 207.28 289.89 205.07 C 287.54 207.95 283.97 210.69 280.04 209.64 C 276.53 208.99 274.58 205.37 274.29 202.07 C 273.81 197.23 274.27 192.29 275.46 187.58 C 276.09 184.32 279.28 182.57 280.59 179.67 C 282.09 176.50 281.17 172.90 281.16 169.55 M 285.69 187.05 C 283.73 189.25 281.63 191.33 279.20 193.01 C 280.24 194.23 281.23 195.67 282.90 196.06 C 286.55 194.74 286.74 190.20 285.69 187.05 M 291.35 188.46 C 288.57 190.29 290.13 193.82 290.92 196.29 C 292.83 194.19 294.80 192.13 296.62 189.96 C 294.99 189.15 293.23 186.82 291.35 188.46 Z" />
</g>
<g id="#eec476ff">
<path fill="#eec476" opacity="1.00" d=" M 34.88 176.19 C 37.71 175.39 39.87 177.51 41.64 179.36 C 44.99 182.70 45.70 187.61 48.31 191.44 C 48.27 190.25 48.22 189.06 48.17 187.88 L 48.82 188.12 C 50.38 188.69 51.93 189.25 53.48 189.83 L 51.72 190.76 C 49.87 191.11 50.12 193.10 49.73 194.51 C 50.50 194.71 52.03 195.09 52.80 195.29 C 53.30 195.70 54.30 196.52 54.80 196.93 C 53.90 197.06 52.09 197.34 51.18 197.48 C 51.94 199.16 52.58 200.91 53.58 202.46 C 57.84 204.12 63.98 200.08 66.75 204.90 C 62.35 204.28 57.91 204.13 53.47 204.22 C 49.31 202.97 51.47 197.21 48.22 194.80 C 46.81 200.08 47.31 205.59 46.91 210.99 L 45.32 210.31 C 44.41 204.52 45.94 198.74 45.75 192.94 C 45.00 186.05 40.56 179.97 34.88 176.19 Z" />
</g>
<g id="#040302ff">
<path fill="#040302" opacity="1.00" d=" M 83.96 176.45 C 85.43 176.16 86.93 175.98 88.42 175.79 C 88.24 176.46 87.89 177.79 87.71 178.46 C 75.95 181.72 63.47 185.01 51.30 181.94 C 50.30 181.67 49.32 181.33 48.37 180.93 C 48.27 179.53 48.24 178.13 48.30 176.73 C 60.07 178.69 72.24 179.00 83.96 176.45 Z" />
</g>
<g id="#040402ff">
<path fill="#040402" opacity="1.00" d=" M 71.89 184.42 C 77.62 183.79 83.05 181.14 88.83 181.21 C 88.88 181.64 88.99 182.51 89.04 182.94 C 86.73 184.62 83.91 185.37 81.18 186.07 C 74.85 187.66 68.52 189.56 61.96 189.82 C 57.50 190.03 53.20 188.67 48.82 188.12 C 48.79 186.73 48.77 185.35 48.76 183.97 L 49.74 184.08 C 57.06 185.16 64.57 186.08 71.89 184.42 Z" />
</g>
<g id="#060505ff">
<path fill="#060505" opacity="1.00" d=" M 232.00 185.04 C 230.55 184.11 230.38 181.99 231.90 181.03 C 237.08 182.10 241.89 184.45 247.08 185.50 C 255.09 187.25 263.37 185.81 271.15 183.64 C 271.41 184.62 271.65 185.61 271.85 186.61 C 264.37 191.69 254.59 191.65 246.03 189.99 C 241.21 188.82 236.32 187.57 232.00 185.04 Z" />
</g>
<g id="#010400ff">
<path fill="#010400" opacity="1.00" d=" M 72.12 190.69 C 77.86 189.46 83.32 187.23 88.98 185.73 C 91.12 187.52 88.82 189.64 86.88 190.14 C 80.18 192.54 73.27 195.11 66.05 194.96 C 61.63 194.85 57.21 196.05 52.80 195.29 C 52.03 195.09 50.50 194.71 49.73 194.51 C 50.12 193.10 49.87 191.11 51.72 190.76 C 58.48 191.56 65.39 192.00 72.12 190.69 Z" />
</g>
<g id="#040304ff">
<path fill="#040304" opacity="1.00" d=" M 230.56 186.43 C 236.23 187.09 241.21 190.28 246.84 191.04 C 254.67 193.50 263.25 192.30 271.02 190.15 C 272.48 193.99 267.80 195.30 264.97 195.94 C 259.20 197.65 253.19 197.07 247.31 196.46 C 250.86 198.35 255.11 197.59 258.98 197.89 C 263.34 198.19 267.44 196.40 271.75 196.17 C 271.48 197.96 271.45 199.87 270.49 201.46 C 266.14 204.14 260.79 202.97 256.03 204.18 C 253.65 206.00 253.69 210.81 250.08 210.94 C 247.89 211.43 246.25 209.08 246.52 207.10 C 246.39 205.55 246.82 203.78 245.78 202.46 C 241.04 200.68 236.00 199.66 231.46 197.35 C 229.54 195.91 230.29 193.37 231.51 191.73 C 231.19 189.96 230.84 188.20 230.56 186.43 M 243.25 195.23 C 243.44 198.57 246.19 193.63 243.25 195.23 M 250.23 203.44 C 250.19 204.72 250.19 206.01 250.20 207.30 C 251.76 206.54 252.55 205.13 252.90 203.50 C 252.23 203.49 250.89 203.46 250.23 203.44 Z" />
</g>
<g id="#e2cd8cff">
<path fill="#e2cd8c" opacity="1.00" d=" M 291.35 188.46 C 293.23 186.82 294.99 189.15 296.62 189.96 C 294.80 192.13 292.83 194.19 290.92 196.29 C 290.13 193.82 288.57 190.29 291.35 188.46 Z" />
</g>
<g id="#010405ff">
<path fill="#010405" opacity="1.00" d=" M 88.41 191.43 C 90.48 189.89 93.26 193.88 91.16 195.23 C 87.62 197.98 83.00 198.58 78.88 200.10 C 77.39 200.73 75.14 200.84 74.84 202.84 C 74.47 204.97 74.23 207.12 74.00 209.27 C 73.38 209.33 72.14 209.46 71.51 209.52 C 71.03 209.56 70.06 209.63 69.57 209.66 C 68.59 208.10 67.68 206.50 66.75 204.90 C 63.98 200.08 57.84 204.12 53.58 202.46 C 52.58 200.91 51.94 199.16 51.18 197.48 C 52.09 197.34 53.90 197.06 54.80 196.93 C 66.21 197.30 77.77 195.63 88.41 191.43 M 70.25 205.36 C 70.88 205.31 72.16 205.21 72.80 205.16 C 72.18 204.24 72.55 201.59 70.95 202.15 C 69.10 201.95 70.48 204.33 70.25 205.36 Z" />
</g>
<g id="#363833ff">
<path fill="#363833" opacity="1.00" d=" M 243.25 195.23 C 246.19 193.63 243.44 198.57 243.25 195.23 Z" />
</g>
<g id="#e5c36fff">
<path fill="#e5c36f" opacity="1.00" d=" M 85.16 198.84 C 86.60 198.06 88.06 198.75 89.43 199.29 C 85.91 200.97 81.95 201.55 78.52 203.41 C 77.05 206.01 76.26 208.92 75.21 211.70 C 82.89 213.27 90.67 214.35 98.37 215.83 C 100.98 216.31 103.70 217.56 106.31 216.42 C 110.40 215.28 113.58 212.34 117.36 210.57 C 124.89 208.87 132.35 212.29 138.93 215.64 C 141.04 214.84 143.18 214.06 145.42 213.67 L 146.13 215.35 C 143.97 216.50 141.62 217.15 139.26 217.69 C 140.74 219.02 142.08 220.51 142.97 222.31 C 141.23 221.85 139.49 221.46 137.75 221.04 C 137.25 225.97 137.14 230.93 137.32 235.88 C 140.17 235.45 144.18 235.77 145.49 232.57 C 145.93 229.74 145.31 226.88 144.89 224.10 C 149.25 226.18 147.71 231.52 147.84 235.36 C 144.15 236.55 140.69 239.14 136.70 238.95 C 136.33 238.53 135.58 237.69 135.21 237.27 C 134.93 231.44 134.21 225.38 135.81 219.69 C 135.55 218.29 135.25 216.91 134.98 215.52 C 131.05 214.29 127.04 213.37 123.08 212.28 C 121.78 212.01 120.28 211.28 119.12 212.31 C 114.68 214.98 110.13 217.69 105.05 218.88 C 100.87 219.57 97.17 216.68 93.02 216.80 C 84.81 216.63 76.99 213.33 68.81 213.09 C 58.85 215.64 48.54 218.23 40.04 224.28 C 34.44 228.18 29.28 233.86 28.86 241.01 C 29.33 245.17 30.77 249.83 34.61 252.09 C 37.44 254.20 40.87 255.21 44.38 255.27 C 44.38 259.42 40.14 261.05 36.74 261.72 C 37.66 260.31 38.60 258.92 39.55 257.53 C 34.75 254.91 28.85 252.38 27.59 246.42 C 26.36 239.47 27.54 231.02 33.49 226.45 C 38.12 222.54 43.03 218.67 48.88 216.81 C 54.94 214.83 60.84 212.21 67.25 211.54 C 66.13 209.26 64.93 206.79 62.61 205.49 C 59.62 204.66 56.09 206.45 53.47 204.22 C 57.91 204.13 62.35 204.28 66.75 204.90 C 67.68 206.50 68.59 208.10 69.57 209.66 C 70.09 211.52 72.15 211.95 73.63 210.85 C 73.10 210.52 72.04 209.85 71.51 209.52 C 72.14 209.46 73.38 209.33 74.00 209.27 C 74.23 207.12 74.47 204.97 74.84 202.84 C 74.97 204.48 75.08 206.14 75.47 207.75 C 76.09 206.08 75.62 204.28 75.66 202.56 C 78.57 200.76 81.97 199.99 85.16 198.84 Z" />
</g>
<g id="#e9c66fff">
<path fill="#e9c66f" opacity="1.00" d=" M 196.71 208.26 C 198.30 208.28 199.90 208.33 201.50 208.40 C 204.07 211.00 207.18 213.68 211.04 213.73 C 217.56 213.66 223.87 211.30 230.40 211.47 C 232.04 211.39 233.35 212.44 234.65 213.27 C 232.08 213.69 229.49 213.86 226.89 213.95 C 221.17 214.04 215.72 216.32 210.00 216.36 C 206.72 215.24 203.85 213.17 200.70 211.74 C 199.00 211.05 197.68 209.79 196.71 208.26 Z" />
</g>
<g id="#010101ff">
<path fill="#010101" opacity="1.00" d=" M 175.92 217.62 C 182.96 215.60 189.76 212.62 196.91 211.07 C 201.30 212.88 205.51 215.17 209.68 217.46 C 215.39 216.55 221.08 215.44 226.79 214.54 C 233.77 213.07 239.72 218.11 244.94 221.99 C 251.99 221.01 259.05 220.07 266.13 219.33 C 271.32 219.08 276.06 221.95 280.06 224.98 C 282.48 227.12 285.50 229.44 285.60 232.98 C 285.79 242.85 284.74 252.70 285.03 262.57 C 287.69 264.48 290.19 266.62 292.79 268.62 C 286.09 269.37 279.46 270.63 272.76 271.30 C 267.06 268.87 261.95 265.14 256.43 262.28 C 257.40 260.66 258.30 258.92 258.13 256.97 C 258.13 249.65 258.73 242.34 258.62 235.02 C 258.08 229.92 252.62 227.54 248.12 226.99 C 247.42 234.74 247.60 242.54 247.24 250.32 C 249.81 252.30 252.44 254.19 255.03 256.15 C 248.31 257.29 241.65 258.81 234.92 259.83 C 229.36 257.73 224.29 254.49 218.88 252.02 C 219.64 250.43 220.58 248.83 220.46 247.01 C 220.45 241.08 221.11 235.14 220.64 229.23 C 219.45 224.19 213.52 222.55 208.96 222.90 C 208.76 228.69 208.76 234.49 208.54 240.28 C 211.09 241.95 213.63 243.66 216.15 245.38 C 209.38 247.01 202.59 248.57 195.85 250.29 C 190.53 248.01 185.27 245.60 179.95 243.33 C 180.62 241.97 181.66 240.69 181.64 239.10 C 181.81 232.87 182.03 226.64 182.00 220.41 C 179.97 219.49 177.95 218.55 175.92 217.62 Z" />
<path fill="#010101" opacity="1.00" d=" M 140.96 218.04 C 146.35 216.16 151.52 213.65 157.00 212.06 C 164.83 212.92 173.00 218.08 174.70 226.24 C 175.61 232.12 174.73 238.09 174.91 244.00 C 175.28 248.87 174.29 254.28 169.96 257.20 C 160.14 264.29 147.61 265.44 135.91 266.29 L 135.23 266.21 C 135.21 264.80 135.20 263.40 135.18 261.99 C 139.78 259.76 146.07 258.52 147.98 253.12 C 149.06 248.55 148.53 243.78 148.74 239.12 C 141.50 242.02 134.29 244.99 127.15 248.13 C 125.81 248.54 124.44 249.55 122.98 249.05 C 117.03 247.60 111.17 245.76 105.19 244.44 C 106.60 243.20 108.34 242.21 109.39 240.62 C 109.71 235.40 109.62 230.16 109.91 224.94 C 107.40 223.76 104.88 222.61 102.36 221.47 C 108.61 218.77 114.55 215.35 120.93 212.96 C 125.65 213.54 130.16 215.22 134.78 216.28 C 134.53 222.50 134.33 228.72 134.31 234.94 C 134.13 237.13 135.37 239.98 137.99 239.56 C 141.82 239.01 145.31 237.19 148.93 235.91 C 148.85 232.63 149.34 229.16 148.05 226.05 C 146.30 222.90 143.40 220.62 140.96 218.04 Z" />
<path fill="#010101" opacity="1.00" d=" M 50.62 219.34 C 56.86 216.99 63.32 214.97 69.93 214.06 C 80.70 215.52 91.36 217.82 102.11 219.52 C 100.58 220.58 99.01 221.56 97.51 222.66 C 97.06 229.43 96.89 236.25 97.08 243.04 C 97.14 247.60 100.03 251.31 103.16 254.33 C 92.28 260.46 81.35 266.51 70.33 272.39 C 66.56 274.47 62.12 275.46 57.86 274.48 C 48.92 272.59 40.10 270.19 31.19 268.16 C 37.10 263.66 43.23 259.45 49.06 254.85 C 43.40 255.32 37.21 254.10 33.19 249.81 C 28.74 245.19 29.28 237.63 32.53 232.50 C 36.71 226.06 43.70 222.20 50.62 219.34 M 61.22 225.85 C 55.94 228.39 53.52 236.67 58.43 240.68 C 61.69 243.66 66.41 242.89 70.14 241.33 C 70.13 236.94 70.16 232.55 70.31 228.16 C 67.29 227.36 64.35 226.10 61.22 225.85 M 51.56 254.71 C 59.85 256.47 68.16 258.12 76.46 259.84 C 73.91 255.82 71.56 251.66 69.83 247.22 C 63.87 250.01 58.05 253.28 51.56 254.71 Z" />
</g>
<g id="#e8c676ff">
<path fill="#e8c676" opacity="1.00" d=" M 234.67 213.64 C 240.35 212.34 243.42 219.22 248.97 218.25 C 255.73 217.62 262.46 216.24 269.29 216.47 C 273.06 216.59 276.48 218.80 278.70 221.77 C 275.13 222.05 272.52 218.96 269.04 218.98 C 260.90 218.61 252.80 220.58 244.80 221.15 C 241.90 217.95 237.20 217.12 234.67 213.64 Z" />
</g>
<g id="#e9c768ff">
<path fill="#e9c768" opacity="1.00" d=" M 173.78 218.89 C 176.57 218.66 179.10 219.50 180.94 221.62 C 180.86 228.14 181.29 234.67 180.84 241.18 C 179.33 242.15 177.82 243.11 176.31 244.08 C 176.06 239.72 176.09 235.36 176.16 231.00 C 176.40 226.79 174.16 223.01 173.78 218.89 Z" />
</g>
<g id="#fcc44fff">
<path fill="#fcc44f" opacity="1.00" d=" M 137.75 221.04 C 139.49 221.46 141.23 221.85 142.97 222.31 C 143.74 222.73 144.38 223.38 144.89 224.10 C 145.31 226.88 145.93 229.74 145.49 232.57 C 144.18 235.77 140.17 235.45 137.32 235.88 C 137.14 230.93 137.25 225.97 137.75 221.04 Z" />
</g>
<g id="#e8c67aff">
<path fill="#e8c67a" opacity="1.00" d=" M 97.96 224.69 C 98.89 223.69 99.83 222.70 100.76 221.71 C 102.81 222.10 104.66 223.02 105.91 224.74 C 104.04 224.80 102.18 224.91 100.31 225.02 C 100.13 231.07 99.77 237.14 100.57 243.15 C 102.37 242.71 104.18 242.27 105.98 241.77 C 105.24 242.75 104.50 243.73 103.76 244.71 C 110.09 246.44 116.47 247.97 122.79 249.72 C 125.41 250.59 127.64 248.30 130.00 247.55 C 136.19 245.19 141.98 241.84 148.39 240.11 C 148.23 244.43 148.56 248.83 147.68 253.09 C 145.70 258.32 139.67 259.48 135.07 261.40 C 134.93 263.02 134.77 264.64 134.62 266.26 C 134.77 266.25 135.07 266.22 135.23 266.21 L 135.91 266.29 C 138.94 266.50 141.98 265.61 145.04 265.91 C 150.83 266.37 156.24 263.99 161.57 262.12 C 164.93 260.88 168.40 259.60 171.18 257.26 C 173.13 255.27 173.87 252.33 176.20 250.64 C 177.25 254.83 174.24 257.92 171.11 260.05 C 166.10 263.72 160.04 265.46 154.15 267.15 C 147.47 269.05 140.45 268.19 133.60 268.43 C 132.72 266.20 131.36 263.73 132.43 261.31 C 134.86 256.25 142.87 258.20 144.80 252.69 C 145.77 250.33 147.06 246.07 144.00 244.84 C 136.92 245.91 131.14 251.21 123.98 251.76 C 116.49 250.73 108.95 249.27 102.07 246.00 C 101.98 246.69 101.81 248.08 101.73 248.77 C 103.36 250.35 105.54 251.67 106.26 253.96 C 104.91 257.51 101.33 259.59 98.01 261.05 C 94.40 262.71 90.87 264.78 86.82 265.16 C 88.81 262.35 92.23 261.45 95.04 259.75 C 98.13 257.92 101.19 256.04 104.44 254.50 C 101.44 251.66 98.00 248.51 98.02 244.03 C 97.94 237.59 97.89 231.13 97.96 224.69 Z" />
</g>
<g id="#fbc64fff">
<path fill="#fbc64f" opacity="1.00" d=" M 100.31 225.02 C 102.18 224.91 104.04 224.80 105.91 224.74 C 109.09 225.73 108.23 229.46 108.50 232.03 C 108.28 235.28 109.29 239.78 105.98 241.77 C 104.18 242.27 102.37 242.71 100.57 243.15 C 99.77 237.14 100.13 231.07 100.31 225.02 Z" />
</g>
<g id="#e5c977ff">
<path fill="#e5c977" opacity="1.00" d=" M 209.89 223.63 C 213.58 223.25 217.58 224.39 218.84 228.23 C 221.61 233.60 219.69 239.86 220.15 245.63 C 217.55 246.03 214.80 244.93 215.72 241.92 C 217.77 238.65 217.58 234.61 217.39 230.91 C 217.54 228.57 214.43 226.87 212.57 228.26 C 211.75 232.91 211.54 238.29 215.06 241.96 C 213.00 243.55 209.79 241.58 210.13 239.06 C 210.07 233.91 210.21 228.77 209.89 223.63 Z" />
</g>
<g id="#f9c64cff">
<path fill="#f9c64c" opacity="1.00" d=" M 61.32 228.32 C 63.57 228.03 65.76 228.92 67.94 229.34 C 67.98 232.91 67.96 236.48 67.85 240.06 C 64.86 239.89 60.87 241.12 58.80 238.27 C 56.92 234.97 57.82 230.16 61.32 228.32 Z" />
</g>
<g id="#ffc549ff">
<path fill="#ffc549" opacity="1.00" d=" M 212.57 228.26 C 214.43 226.87 217.54 228.57 217.39 230.91 C 217.58 234.61 217.77 238.65 215.72 241.92 L 215.06 241.96 C 211.54 238.29 211.75 232.91 212.57 228.26 Z" />
</g>
<g id="#e3c683ff">
<path fill="#e3c683" opacity="1.00" d=" M 247.90 234.06 C 247.97 231.55 249.74 229.61 251.09 227.66 C 254.30 229.35 258.47 231.68 258.27 235.89 C 258.06 242.06 259.02 248.53 256.69 254.41 C 253.65 253.25 250.67 251.95 247.73 250.58 C 247.59 245.07 247.58 239.56 247.90 234.06 M 251.33 233.38 C 249.67 237.38 250.62 242.24 251.34 246.46 C 251.78 248.28 253.10 251.77 255.50 250.45 C 255.71 245.32 255.45 240.15 255.16 235.02 C 255.04 233.44 252.39 231.49 251.33 233.38 Z" />
</g>
<g id="#e8c96dff">
<path fill="#e8c96d" opacity="1.00" d=" M 176.21 244.11 C 181.24 243.98 185.92 246.38 190.19 248.76 L 191.09 250.58 C 186.09 250.24 181.41 245.27 176.48 248.57 C 176.39 247.08 176.30 245.59 176.21 244.11 Z" />
</g>
<g id="#e9c96bff">
<path fill="#e9c96b" opacity="1.00" d=" M 209.19 247.87 C 212.34 246.76 215.71 247.20 218.97 247.35 C 218.63 248.95 218.32 250.56 217.99 252.16 C 217.93 252.76 217.83 253.96 217.78 254.56 C 215.78 253.29 216.25 250.77 215.91 248.78 C 208.97 250.21 202.22 253.12 195.04 252.93 C 193.20 253.15 191.96 251.72 191.09 250.31 C 192.75 250.47 194.42 250.67 196.08 250.89 C 200.44 249.83 204.93 249.32 209.19 247.87 Z" />
</g>
<g id="#eac869ff">
<path fill="#eac869" opacity="1.00" d=" M 65.42 250.10 C 66.78 249.62 69.15 247.88 69.94 250.06 C 71.74 252.53 72.71 255.47 73.46 258.41 C 68.91 257.89 64.44 256.78 60.11 255.32 C 59.46 252.00 63.27 251.41 65.42 250.10 Z" />
</g>
</svg>
